<svg width="92" height="59" viewBox="0 0 92 59" fill="none" xmlns="http://www.w3.org/2000/svg">
<path d="M85.969 6.6507C82.4106 2.76159 77.6745 0.428382 72.652 0.090183C67.6299 -0.248017 62.6676 1.43211 58.6994 4.81437C55.0759 1.73676 50.6179 0.0656538 46.0291 0.0646818C41.4403 0.0637098 36.982 1.73293 33.3572 4.809C29.2233 1.26293 24.0072 -0.424555 18.7737 0.0910688C13.5403 0.60669 8.68424 3.28654 5.19691 7.58349C1.70958 11.8805 -0.146 17.4705 0.00898179 23.2123C0.163964 28.9542 2.31782 34.415 6.03085 38.4796L18.7113 52.3438C18.7211 52.3542 18.7309 52.3643 18.742 52.375C18.753 52.3857 18.7561 52.3908 18.7632 52.3985C18.7764 52.4129 18.7905 52.426 18.8037 52.4404C19.0052 52.6585 19.2098 52.8709 19.4175 53.0779C19.5243 53.1849 19.6324 53.2886 19.741 53.393C19.8292 53.4769 19.9178 53.5601 20.0068 53.6423C23.6215 56.9905 28.1801 58.8771 32.9168 58.9845C37.6538 59.0922 42.28 57.4146 46.019 54.2331C49.9871 57.6152 54.9494 59.2955 59.9716 58.9573C64.994 58.6191 69.7301 56.2859 73.2886 52.3968L85.9693 38.5346C89.8313 34.3033 92 28.5699 92 22.5926C92 16.6152 89.831 10.882 85.969 6.6507ZM46.0251 5.9367C49.04 5.93459 51.9876 6.91033 54.4949 8.74038C57.0024 10.5704 58.9566 13.1725 60.1106 16.2173C61.2646 19.2622 61.5663 22.6128 60.9777 25.8452C60.389 29.0775 58.9363 32.0463 56.8035 34.3758L46.0251 46.1584L35.2463 34.3758C33.1135 32.0463 31.6609 29.0775 31.0722 25.8451C30.4835 22.6127 30.7852 19.262 31.9393 16.2172C33.0933 13.1724 35.0478 10.5703 37.555 8.74024C40.0625 6.91022 43.0102 5.93452 46.0251 5.9367ZM18.1008 36.4554C18.0953 34.2661 18.4871 32.0975 19.2535 30.0749C20.0199 28.0524 21.1457 26.2161 22.5656 24.6724L25.4344 21.5362C25.2955 24.671 25.7583 27.8028 26.7929 30.7304C27.8276 33.6577 29.4113 36.3161 31.4421 38.5346L42.0001 50.0766C39.7228 51.8204 37.0513 52.8474 34.2768 53.0454C31.5025 53.2433 28.7314 52.6052 26.266 51.2C23.8006 49.7945 21.7354 47.6766 20.2955 45.0763C18.8556 42.4763 18.0962 39.4939 18.1002 36.4543L18.1008 36.4554ZM9.83452 34.3204C7.13653 31.3717 5.54825 27.424 5.3834 23.2573C5.21855 19.0906 6.48911 15.0078 8.94411 11.8154C11.3991 8.62304 14.86 6.55326 18.6432 6.01491C22.4263 5.47656 26.2566 6.50884 29.3774 8.90777L18.7613 20.5132C16.8403 22.6019 15.3173 25.0864 14.2805 27.8229C13.2437 30.5593 12.7137 33.4934 12.7211 36.4554C12.7211 36.805 12.7286 37.1532 12.7435 37.5005L9.83452 34.3204ZM58.7064 53.1185C55.5921 53.1266 52.5515 52.0838 49.9994 50.1323L60.6094 38.5346C62.6403 36.3161 64.2237 33.6577 65.2583 30.7303C66.2929 27.8028 66.7558 24.671 66.617 21.5362L69.4858 24.6724C71.6177 27.0029 73.0691 29.9721 73.6572 33.2046C74.2455 36.4369 73.9435 39.7874 72.7895 42.8323C71.6358 45.8772 69.6819 48.4795 67.1753 50.3105C64.6684 52.1415 61.7213 53.1185 58.7064 53.1185ZM82.1653 34.3758L79.307 37.5005C79.3214 37.1536 79.3288 36.8053 79.3294 36.4554C79.3367 33.4934 78.8067 30.5593 77.7699 27.8228C76.7331 25.0864 75.2099 22.6019 73.2889 20.5132L62.6802 8.91549C65.8065 6.53722 69.6341 5.52468 73.4092 6.07718C77.1843 6.62966 80.6335 8.70719 83.0775 11.9007C85.5215 15.0942 86.7833 19.1722 86.6145 23.3319C86.4457 27.4916 84.8586 31.4314 82.1653 34.3758Z" fill="white"/>
</svg>
