<svg width="30" height="26" viewBox="0 0 30 26" fill="none" xmlns="http://www.w3.org/2000/svg">
<path d="M7.33039 13.4518C6.03299 14.6504 4.78139 15.7327 3.71505 17.1037C2.88988 18.1646 2.4222 19.3249 1.77957 20.4817C1.38329 21.195 0.964534 21.999 0.921383 22.8189C0.882781 23.5523 0.955945 23.6751 1.5422 24.2613C2.18582 24.905 2.97967 24.4356 3.75157 24.1335C4.34979 23.8994 5.18759 23.8001 5.59576 23.2753C6.5753 22.0159 8.09861 21.0646 9.22023 19.943C10.0246 19.1386 9.81359 19.5142 9.55803 20.4269C9.34009 21.2052 9.06414 23.2456 10.0784 23.5401C12.6106 24.2752 15.4501 22.4571 17.1813 20.8195C20.0485 18.1072 22.166 14.2098 22.7686 10.293C23.1323 7.92915 23.4109 4.84779 21.7552 2.91624C20.0982 0.983008 15.754 0.0758759 13.6207 1.72025C12.8112 2.34427 12.2063 3.77028 12.4978 4.79694C12.9577 6.41669 16.6405 5.41721 17.6104 5.14387C18.6125 4.86144 20.8573 4.31544 21.3535 3.20838C21.443 3.00884 20.7045 3.13398 20.6962 3.13535C19.9259 3.2621 19.4731 3.69409 18.8337 4.08483" stroke="white" stroke-linecap="round"/>
<path d="M17.3548 21.0112C15.91 23.1096 17.8943 21.0177 18.14 21.632C18.4993 22.5305 19.339 22.4295 20.112 21.9972C20.332 21.8741 20.7864 21.3967 21.0614 21.4129C21.1974 21.4209 21.1383 22.106 21.171 22.2163C21.4145 23.0383 22.7873 22.0723 23.07 21.8328C23.9002 21.1293 23.6922 21.2299 23.7638 22.125C23.8192 22.817 25.4793 21.4702 25.6993 21.3398C26.0528 21.1304 26.0632 22.1489 26.594 22.1615C27.4409 22.1817 28.2734 22.0407 29.0225 22.4902" stroke="white" stroke-linecap="round"/>
</svg>
