<svg width="88" height="25" viewBox="0 0 88 25" fill="none" xmlns="http://www.w3.org/2000/svg">
<path d="M30.136 12.636V18.816C30.136 19.504 29.924 20.056 29.5 20.472C29.076 20.88 28.516 21.084 27.82 21.084C27.116 21.084 26.552 20.876 26.128 20.46C25.704 20.036 25.492 19.46 25.492 18.732H26.584C26.592 19.14 26.696 19.472 26.896 19.728C27.104 19.984 27.412 20.112 27.82 20.112C28.228 20.112 28.532 19.992 28.732 19.752C28.932 19.504 29.032 19.192 29.032 18.816V12.636H30.136ZM31.8793 17.688C31.8793 17.016 32.0153 16.428 32.2873 15.924C32.5593 15.412 32.9313 15.016 33.4033 14.736C33.8833 14.456 34.4153 14.316 34.9993 14.316C35.5753 14.316 36.0753 14.44 36.4993 14.688C36.9233 14.936 37.2393 15.248 37.4473 15.624V14.424H38.5513V21H37.4473V19.776C37.2313 20.16 36.9073 20.48 36.4753 20.736C36.0513 20.984 35.5553 21.108 34.9873 21.108C34.4033 21.108 33.8753 20.964 33.4033 20.676C32.9313 20.388 32.5593 19.984 32.2873 19.464C32.0153 18.944 31.8793 18.352 31.8793 17.688ZM37.4473 17.7C37.4473 17.204 37.3473 16.772 37.1473 16.404C36.9473 16.036 36.6753 15.756 36.3313 15.564C35.9953 15.364 35.6233 15.264 35.2153 15.264C34.8073 15.264 34.4353 15.36 34.0993 15.552C33.7633 15.744 33.4953 16.024 33.2953 16.392C33.0953 16.76 32.9953 17.192 32.9953 17.688C32.9953 18.192 33.0953 18.632 33.2953 19.008C33.4953 19.376 33.7633 19.66 34.0993 19.86C34.4353 20.052 34.8073 20.148 35.2153 20.148C35.6233 20.148 35.9953 20.052 36.3313 19.86C36.6753 19.66 36.9473 19.376 37.1473 19.008C37.3473 18.632 37.4473 18.196 37.4473 17.7ZM42.8447 19.992L44.8847 14.424H46.0487L43.4687 21H42.1967L39.6167 14.424H40.7927L42.8447 19.992ZM46.7152 17.688C46.7152 17.016 46.8512 16.428 47.1232 15.924C47.3952 15.412 47.7672 15.016 48.2392 14.736C48.7192 14.456 49.2512 14.316 49.8352 14.316C50.4112 14.316 50.9112 14.44 51.3352 14.688C51.7592 14.936 52.0752 15.248 52.2832 15.624V14.424H53.3872V21H52.2832V19.776C52.0672 20.16 51.7432 20.48 51.3112 20.736C50.8872 20.984 50.3912 21.108 49.8232 21.108C49.2392 21.108 48.7112 20.964 48.2392 20.676C47.7672 20.388 47.3952 19.984 47.1232 19.464C46.8512 18.944 46.7152 18.352 46.7152 17.688ZM52.2832 17.7C52.2832 17.204 52.1832 16.772 51.9832 16.404C51.7832 16.036 51.5112 15.756 51.1672 15.564C50.8312 15.364 50.4592 15.264 50.0512 15.264C49.6432 15.264 49.2712 15.36 48.9352 15.552C48.5992 15.744 48.3312 16.024 48.1312 16.392C47.9312 16.76 47.8312 17.192 47.8312 17.688C47.8312 18.192 47.9312 18.632 48.1312 19.008C48.3312 19.376 48.5992 19.66 48.9352 19.86C49.2712 20.052 49.6432 20.148 50.0512 20.148C50.4592 20.148 50.8312 20.052 51.1672 19.86C51.5112 19.66 51.7832 19.376 51.9832 19.008C52.1832 18.632 52.2832 18.196 52.2832 17.7ZM57.5606 21.108C57.0566 21.108 56.6046 21.024 56.2046 20.856C55.8046 20.68 55.4886 20.44 55.2566 20.136C55.0246 19.824 54.8966 19.468 54.8726 19.068H56.0006C56.0326 19.396 56.1846 19.664 56.4566 19.872C56.7366 20.08 57.1006 20.184 57.5486 20.184C57.9646 20.184 58.2926 20.092 58.5326 19.908C58.7726 19.724 58.8926 19.492 58.8926 19.212C58.8926 18.924 58.7646 18.712 58.5086 18.576C58.2526 18.432 57.8566 18.292 57.3206 18.156C56.8326 18.028 56.4326 17.9 56.1206 17.772C55.8166 17.636 55.5526 17.44 55.3286 17.184C55.1126 16.92 55.0046 16.576 55.0046 16.152C55.0046 15.816 55.1046 15.508 55.3046 15.228C55.5046 14.948 55.7886 14.728 56.1566 14.568C56.5246 14.4 56.9446 14.316 57.4166 14.316C58.1446 14.316 58.7326 14.5 59.1806 14.868C59.6286 15.236 59.8686 15.74 59.9006 16.38H58.8086C58.7846 16.036 58.6446 15.76 58.3886 15.552C58.1406 15.344 57.8046 15.24 57.3806 15.24C56.9886 15.24 56.6766 15.324 56.4446 15.492C56.2126 15.66 56.0966 15.88 56.0966 16.152C56.0966 16.368 56.1646 16.548 56.3006 16.692C56.4446 16.828 56.6206 16.94 56.8286 17.028C57.0446 17.108 57.3406 17.2 57.7166 17.304C58.1886 17.432 58.5726 17.56 58.8686 17.688C59.1646 17.808 59.4166 17.992 59.6246 18.24C59.8406 18.488 59.9526 18.812 59.9606 19.212C59.9606 19.572 59.8606 19.896 59.6606 20.184C59.4606 20.472 59.1766 20.7 58.8086 20.868C58.4486 21.028 58.0326 21.108 57.5606 21.108ZM61.0941 17.7C61.0941 17.02 61.2301 16.428 61.5021 15.924C61.7741 15.412 62.1501 15.016 62.6301 14.736C63.1181 14.456 63.6741 14.316 64.2981 14.316C65.1061 14.316 65.7701 14.512 66.2901 14.904C66.8181 15.296 67.1661 15.84 67.3341 16.536H66.1581C66.0461 16.136 65.8261 15.82 65.4981 15.588C65.1781 15.356 64.7781 15.24 64.2981 15.24C63.6741 15.24 63.1701 15.456 62.7861 15.888C62.4021 16.312 62.2101 16.916 62.2101 17.7C62.2101 18.492 62.4021 19.104 62.7861 19.536C63.1701 19.968 63.6741 20.184 64.2981 20.184C64.7781 20.184 65.1781 20.072 65.4981 19.848C65.8181 19.624 66.0381 19.304 66.1581 18.888H67.3341C67.1581 19.56 66.8061 20.1 66.2781 20.508C65.7501 20.908 65.0901 21.108 64.2981 21.108C63.6741 21.108 63.1181 20.968 62.6301 20.688C62.1501 20.408 61.7741 20.012 61.5021 19.5C61.2301 18.988 61.0941 18.388 61.0941 17.7ZM69.8832 15.492C70.0752 15.116 70.3472 14.824 70.6992 14.616C71.0592 14.408 71.4952 14.304 72.0072 14.304V15.432H71.7192C70.4952 15.432 69.8832 16.096 69.8832 17.424V21H68.7912V14.424H69.8832V15.492ZM73.8318 13.356C73.6238 13.356 73.4478 13.284 73.3038 13.14C73.1598 12.996 73.0878 12.82 73.0878 12.612C73.0878 12.404 73.1598 12.228 73.3038 12.084C73.4478 11.94 73.6238 11.868 73.8318 11.868C74.0318 11.868 74.1998 11.94 74.3358 12.084C74.4798 12.228 74.5518 12.404 74.5518 12.612C74.5518 12.82 74.4798 12.996 74.3358 13.14C74.1998 13.284 74.0318 13.356 73.8318 13.356ZM74.3598 14.424V21H73.2678V14.424H74.3598ZM77.3129 15.636C77.5289 15.26 77.8489 14.948 78.2729 14.7C78.7049 14.444 79.2049 14.316 79.7729 14.316C80.3569 14.316 80.8849 14.456 81.3569 14.736C81.8369 15.016 82.2129 15.412 82.4849 15.924C82.7569 16.428 82.8929 17.016 82.8929 17.688C82.8929 18.352 82.7569 18.944 82.4849 19.464C82.2129 19.984 81.8369 20.388 81.3569 20.676C80.8849 20.964 80.3569 21.108 79.7729 21.108C79.2129 21.108 78.7169 20.984 78.2849 20.736C77.8609 20.48 77.5369 20.164 77.3129 19.788V24.12H76.2209V14.424H77.3129V15.636ZM81.7769 17.688C81.7769 17.192 81.6769 16.76 81.4769 16.392C81.2769 16.024 81.0049 15.744 80.6609 15.552C80.3249 15.36 79.9529 15.264 79.5449 15.264C79.1449 15.264 78.7729 15.364 78.4289 15.564C78.0929 15.756 77.8209 16.04 77.6129 16.416C77.4129 16.784 77.3129 17.212 77.3129 17.7C77.3129 18.196 77.4129 18.632 77.6129 19.008C77.8209 19.376 78.0929 19.66 78.4289 19.86C78.7729 20.052 79.1449 20.148 79.5449 20.148C79.9529 20.148 80.3249 20.052 80.6609 19.86C81.0049 19.66 81.2769 19.376 81.4769 19.008C81.6769 18.632 81.7769 18.192 81.7769 17.688ZM85.6623 15.324V19.2C85.6623 19.52 85.7303 19.748 85.8663 19.884C86.0023 20.012 86.2383 20.076 86.5742 20.076H87.3783V21H86.3943C85.7863 21 85.3303 20.86 85.0263 20.58C84.7223 20.3 84.5703 19.84 84.5703 19.2V15.324H83.7183V14.424H84.5703V12.768H85.6623V14.424H87.3783V15.324H85.6623Z" fill="white"/>
<path d="M20 4L18 18.5L12 20.5L6 18.5L4 4H20Z" stroke="white" stroke-width="2" stroke-linecap="round" stroke-linejoin="round"/>
<path d="M7.5 8H10.5V16L8.5 15" stroke="white" stroke-width="2" stroke-linecap="round" stroke-linejoin="round"/>
<path d="M16.5 8H14C13.8674 8 13.7402 8.05268 13.6464 8.14645C13.5527 8.24021 13.5 8.36739 13.5 8.5V11.5C13.5 11.6326 13.5527 11.7598 13.6464 11.8536C13.7402 11.9473 13.8674 12 14 12H15.423C15.4946 12 15.5653 12.0154 15.6304 12.0451C15.6955 12.0748 15.7535 12.1181 15.8004 12.1722C15.8474 12.2262 15.8821 12.2897 15.9024 12.3583C15.9227 12.4269 15.928 12.4991 15.918 12.57L15.5 15.5L13.5 16" stroke="white" stroke-width="2" stroke-linecap="round" stroke-linejoin="round"/>
</svg>
