<svg  viewBox="0 0 49 20" fill="none" xmlns="http://www.w3.org/2000/svg">
<path d="M2.1 4.1C2.3 5.4 2.5 5.7 2.5 7C2.5 7.8 1 8.5 1 8.5V9.5C1 9.5 2.5 10.2 2.5 11C2.5 12.3 2.3 12.6 2.1 13.9C1.8 16 2.9 17 3.9 17H6V15C6 15 4.2 15.2 4.2 14C4.2 13.1 4.4 13.1 4.6 11.1C4.7 10.2 4.1 9.5 3.5 9C4.1 8.5 4.7 7.9 4.6 7C4.3 5 4.2 5 4.2 4.1C4.2 2.9 6 3 6 3V1H3.9C2.8 1 1.8 2 2.1 4.1Z" fill="white"/>
<path d="M47.9 3.1C47.7 4.4 47.5 4.7 47.5 6C47.5 6.8 49 7.5 49 7.5V8.5C49 8.5 47.5 9.2 47.5 10C47.5 11.3 47.7 11.6 47.9 12.9C48.2 15 47.1 16 46.1 16H44V14C44 14 45.8 14.2 45.8 13C45.8 12.1 45.6 12.1 45.4 10.1C45.3 9.2 45.9 8.5 46.5 8C45.9 7.5 45.3 6.9 45.4 6C45.6 4 45.8 4 45.8 3.1C45.8 1.9 44 2 44 2V0H46.1C47.2 0 48.2 1 47.9 3.1Z" fill="white"/>
<path d="M16.328 15L14.336 11.58H13.016V15H11.924V6.636H14.624C15.256 6.636 15.788 6.744 16.22 6.96C16.66 7.176 16.988 7.468 17.204 7.836C17.42 8.204 17.528 8.624 17.528 9.096C17.528 9.672 17.36 10.18 17.024 10.62C16.696 11.06 16.2 11.352 15.536 11.496L17.636 15H16.328ZM13.016 10.704H14.624C15.216 10.704 15.66 10.56 15.956 10.272C16.252 9.976 16.4 9.584 16.4 9.096C16.4 8.6 16.252 8.216 15.956 7.944C15.668 7.672 15.224 7.536 14.624 7.536H13.016V10.704ZM20.3168 7.524V10.32H23.3648V11.22H20.3168V14.1H23.7248V15H19.2248V6.624H23.7248V7.524H20.3168ZM28.0291 15.084C27.4771 15.084 26.9811 14.988 26.5411 14.796C26.1091 14.596 25.7691 14.324 25.5211 13.98C25.2731 13.628 25.1451 13.224 25.1371 12.768H26.3011C26.3411 13.16 26.5011 13.492 26.7811 13.764C27.0691 14.028 27.4851 14.16 28.0291 14.16C28.5491 14.16 28.9571 14.032 29.2531 13.776C29.5571 13.512 29.7091 13.176 29.7091 12.768C29.7091 12.448 29.6211 12.188 29.4451 11.988C29.2691 11.788 29.0491 11.636 28.7851 11.532C28.5211 11.428 28.1651 11.316 27.7171 11.196C27.1651 11.052 26.7211 10.908 26.3851 10.764C26.0571 10.62 25.7731 10.396 25.5331 10.092C25.3011 9.78 25.1851 9.364 25.1851 8.844C25.1851 8.388 25.3011 7.984 25.5331 7.632C25.7651 7.28 26.0891 7.008 26.5051 6.816C26.9291 6.624 27.4131 6.528 27.9571 6.528C28.7411 6.528 29.3811 6.724 29.8771 7.116C30.3811 7.508 30.6651 8.028 30.7291 8.676H29.5291C29.4891 8.356 29.3211 8.076 29.0251 7.836C28.7291 7.588 28.3371 7.464 27.8491 7.464C27.3931 7.464 27.0211 7.584 26.7331 7.824C26.4451 8.056 26.3011 8.384 26.3011 8.808C26.3011 9.112 26.3851 9.36 26.5531 9.552C26.7291 9.744 26.9411 9.892 27.1891 9.996C27.4451 10.092 27.8011 10.204 28.2571 10.332C28.8091 10.484 29.2531 10.636 29.5891 10.788C29.9251 10.932 30.2131 11.16 30.4531 11.472C30.6931 11.776 30.8131 12.192 30.8131 12.72C30.8131 13.128 30.7051 13.512 30.4891 13.872C30.2731 14.232 29.9531 14.524 29.5291 14.748C29.1051 14.972 28.6051 15.084 28.0291 15.084ZM37.5681 6.636V7.524H35.2881V15H34.1961V7.524H31.9041V6.636H37.5681Z" fill="white"/>
</svg>
