<svg width="82" height="26" viewBox="0 0 82 26" fill="none" xmlns="http://www.w3.org/2000/svg">
<path d="M33.26 16.06C33.028 15.572 32.692 15.196 32.252 14.932C31.812 14.66 31.3 14.524 30.716 14.524C30.132 14.524 29.604 14.66 29.132 14.932C28.668 15.196 28.3 15.58 28.028 16.084C27.764 16.58 27.632 17.156 27.632 17.812C27.632 18.468 27.764 19.044 28.028 19.54C28.3 20.036 28.668 20.42 29.132 20.692C29.604 20.956 30.132 21.088 30.716 21.088C31.532 21.088 32.204 20.844 32.732 20.356C33.26 19.868 33.568 19.208 33.656 18.376H30.32V17.488H34.82V18.328C34.756 19.016 34.54 19.648 34.172 20.224C33.804 20.792 33.32 21.244 32.72 21.58C32.12 21.908 31.452 22.072 30.716 22.072C29.94 22.072 29.232 21.892 28.592 21.532C27.952 21.164 27.444 20.656 27.068 20.008C26.7 19.36 26.516 18.628 26.516 17.812C26.516 16.996 26.7 16.264 27.068 15.616C27.444 14.96 27.952 14.452 28.592 14.092C29.232 13.724 29.94 13.54 30.716 13.54C31.604 13.54 32.388 13.76 33.068 14.2C33.756 14.64 34.256 15.26 34.568 16.06H33.26ZM37.3558 16.492C37.5478 16.116 37.8198 15.824 38.1718 15.616C38.5318 15.408 38.9678 15.304 39.4798 15.304V16.432H39.1918C37.9678 16.432 37.3558 17.096 37.3558 18.424V22H36.2638V15.424H37.3558V16.492ZM40.3324 18.688C40.3324 18.016 40.4684 17.428 40.7404 16.924C41.0124 16.412 41.3844 16.016 41.8564 15.736C42.3364 15.456 42.8684 15.316 43.4524 15.316C44.0284 15.316 44.5284 15.44 44.9524 15.688C45.3764 15.936 45.6924 16.248 45.9004 16.624V15.424H47.0044V22H45.9004V20.776C45.6844 21.16 45.3604 21.48 44.9284 21.736C44.5044 21.984 44.0084 22.108 43.4404 22.108C42.8564 22.108 42.3284 21.964 41.8564 21.676C41.3844 21.388 41.0124 20.984 40.7404 20.464C40.4684 19.944 40.3324 19.352 40.3324 18.688ZM45.9004 18.7C45.9004 18.204 45.8004 17.772 45.6004 17.404C45.4004 17.036 45.1284 16.756 44.7844 16.564C44.4484 16.364 44.0764 16.264 43.6684 16.264C43.2604 16.264 42.8884 16.36 42.5524 16.552C42.2164 16.744 41.9484 17.024 41.7484 17.392C41.5484 17.76 41.4484 18.192 41.4484 18.688C41.4484 19.192 41.5484 19.632 41.7484 20.008C41.9484 20.376 42.2164 20.66 42.5524 20.86C42.8884 21.052 43.2604 21.148 43.6684 21.148C44.0764 21.148 44.4484 21.052 44.7844 20.86C45.1284 20.66 45.4004 20.376 45.6004 20.008C45.8004 19.632 45.9004 19.196 45.9004 18.7ZM49.9418 16.636C50.1578 16.26 50.4778 15.948 50.9018 15.7C51.3338 15.444 51.8338 15.316 52.4018 15.316C52.9858 15.316 53.5138 15.456 53.9858 15.736C54.4658 16.016 54.8418 16.412 55.1138 16.924C55.3858 17.428 55.5218 18.016 55.5218 18.688C55.5218 19.352 55.3858 19.944 55.1138 20.464C54.8418 20.984 54.4658 21.388 53.9858 21.676C53.5138 21.964 52.9858 22.108 52.4018 22.108C51.8418 22.108 51.3458 21.984 50.9138 21.736C50.4898 21.48 50.1658 21.164 49.9418 20.788V25.12H48.8498V15.424H49.9418V16.636ZM54.4058 18.688C54.4058 18.192 54.3058 17.76 54.1058 17.392C53.9058 17.024 53.6338 16.744 53.2898 16.552C52.9538 16.36 52.5818 16.264 52.1738 16.264C51.7738 16.264 51.4018 16.364 51.0578 16.564C50.7218 16.756 50.4498 17.04 50.2418 17.416C50.0418 17.784 49.9418 18.212 49.9418 18.7C49.9418 19.196 50.0418 19.632 50.2418 20.008C50.4498 20.376 50.7218 20.66 51.0578 20.86C51.4018 21.052 51.7738 21.148 52.1738 21.148C52.5818 21.148 52.9538 21.052 53.2898 20.86C53.6338 20.66 53.9058 20.376 54.1058 20.008C54.3058 19.632 54.4058 19.192 54.4058 18.688ZM60.2232 15.304C60.7192 15.304 61.1672 15.412 61.5672 15.628C61.9672 15.836 62.2792 16.152 62.5032 16.576C62.7352 17 62.8512 17.516 62.8512 18.124V22H61.7712V18.28C61.7712 17.624 61.6072 17.124 61.2792 16.78C60.9512 16.428 60.5032 16.252 59.9352 16.252C59.3592 16.252 58.8992 16.432 58.5552 16.792C58.2192 17.152 58.0512 17.676 58.0512 18.364V22H56.9592V13.12H58.0512V16.36C58.2672 16.024 58.5632 15.764 58.9392 15.58C59.3232 15.396 59.7512 15.304 60.2232 15.304ZM71.3429 23.584L69.6749 21.916C69.2669 22.028 68.8509 22.084 68.4269 22.084C67.6509 22.084 66.9429 21.904 66.3029 21.544C65.6629 21.176 65.1549 20.668 64.7789 20.02C64.4109 19.364 64.2269 18.628 64.2269 17.812C64.2269 16.996 64.4109 16.264 64.7789 15.616C65.1549 14.96 65.6629 14.452 66.3029 14.092C66.9429 13.724 67.6509 13.54 68.4269 13.54C69.2109 13.54 69.9229 13.724 70.5629 14.092C71.2029 14.452 71.7069 14.956 72.0749 15.604C72.4429 16.252 72.6269 16.988 72.6269 17.812C72.6269 18.612 72.4509 19.332 72.0989 19.972C71.7469 20.612 71.2629 21.116 70.6469 21.484L72.7589 23.584H71.3429ZM65.3429 17.812C65.3429 18.476 65.4749 19.06 65.7389 19.564C66.0109 20.068 66.3789 20.456 66.8429 20.728C67.3149 21 67.8429 21.136 68.4269 21.136C69.0109 21.136 69.5349 21 69.9989 20.728C70.4709 20.456 70.8389 20.068 71.1029 19.564C71.3749 19.06 71.5109 18.476 71.5109 17.812C71.5109 17.14 71.3749 16.556 71.1029 16.06C70.8389 15.556 70.4749 15.168 70.0109 14.896C69.5469 14.624 69.0189 14.488 68.4269 14.488C67.8349 14.488 67.3069 14.624 66.8429 14.896C66.3789 15.168 66.0109 15.556 65.7389 16.06C65.4749 16.556 65.3429 17.14 65.3429 17.812ZM75.184 21.112H78.112V22H74.092V13.636H75.184V21.112Z" fill="white"/>
<g clip-path="url(#clip0_79_65)">
<path d="M12.731 2.75101L17.666 5.60001C17.8947 5.35999 18.176 5.17643 18.4878 5.06383C18.7996 4.95123 19.1333 4.91267 19.4625 4.9512C19.7918 4.98974 20.1076 5.10431 20.3849 5.28586C20.6623 5.46741 20.8936 5.71097 21.0607 5.9973C21.2277 6.28363 21.3259 6.60489 21.3475 6.93568C21.369 7.26648 21.3134 7.59776 21.1849 7.90335C21.0564 8.20894 20.8586 8.48046 20.6072 8.69648C20.3557 8.91249 20.0575 9.06707 19.736 9.14801L19.721 9.15101V14.851C20.0479 14.9291 20.3517 15.0832 20.608 15.3006C20.8642 15.518 21.0657 15.7928 21.196 16.1026C21.3263 16.4123 21.3818 16.7485 21.3581 17.0837C21.3343 17.4189 21.2319 17.7438 21.0592 18.0321C20.8865 18.3204 20.6483 18.564 20.3639 18.7431C20.0796 18.9222 19.757 19.0318 19.4224 19.0631C19.0878 19.0943 18.7505 19.0463 18.4379 18.923C18.1253 18.7996 17.8461 18.6043 17.623 18.353L17.621 18.351L12.716 21.183C12.8221 21.5023 12.8513 21.8422 12.8014 22.175C12.7515 22.5077 12.6238 22.824 12.4287 23.0982C12.2336 23.3724 11.9766 23.5967 11.6786 23.7529C11.3805 23.9091 11.0499 23.9928 10.7134 23.9973C10.3769 24.0018 10.0442 23.9268 9.7421 23.7785C9.44004 23.6303 9.17719 23.4128 8.97491 23.1439C8.77263 22.875 8.63661 22.5622 8.5779 22.2309C8.51919 21.8996 8.53944 21.559 8.637 21.237L8.633 21.252L3.692 18.408C3.4626 18.6474 3.1807 18.8302 2.86855 18.942C2.5564 19.0539 2.22254 19.0916 1.8933 19.0523C1.56407 19.013 1.24847 18.8978 0.971397 18.7156C0.694326 18.5335 0.463366 18.2895 0.296738 18.0028C0.13011 17.7162 0.0323726 17.3947 0.0112359 17.0638C-0.0099008 16.7329 0.0461417 16.4016 0.174942 16.0961C0.303742 15.7906 0.501777 15.5191 0.753423 15.3032C1.00507 15.0873 1.30344 14.9329 1.625 14.852L1.64 14.849V9.15001C1.34026 9.07896 1.05939 8.94405 0.816582 8.75448C0.573775 8.56491 0.374756 8.32515 0.233127 8.0516C0.0914975 7.77804 0.0105957 7.47713 -0.00404966 7.16943C-0.018695 6.86174 0.0332613 6.5545 0.148269 6.26873C0.263276 5.98296 0.438623 5.72539 0.662328 5.51361C0.886032 5.30184 1.15282 5.14086 1.44446 5.04167C1.7361 4.94248 2.04571 4.90742 2.35215 4.93889C2.65858 4.97036 2.95461 5.06761 3.22 5.22401L3.21 5.21901C3.394 5.32501 3.552 5.45001 3.689 5.59501L3.69 5.59601L8.628 2.74601C8.53274 2.42576 8.5138 2.08766 8.57267 1.75877C8.63155 1.42989 8.76662 1.11936 8.96706 0.852047C9.1675 0.584737 9.42775 0.368073 9.72696 0.219405C10.0262 0.0707373 10.356 -0.0058047 10.6902 -0.00409174C11.0243 -0.00237878 11.3533 0.0775416 11.651 0.22927C11.9487 0.380998 12.2067 0.600319 12.4044 0.86967C12.6021 1.13902 12.7339 1.45092 12.7895 1.78039C12.845 2.10986 12.8225 2.44775 12.724 2.76701L12.728 2.75201L12.731 2.75101ZM12.216 3.62801C12.198 3.64799 12.179 3.66702 12.159 3.68501L12.158 3.68601L18.619 14.876C18.645 14.867 18.675 14.86 18.701 14.853V9.14601C18.4277 9.07767 18.1706 8.95605 17.9444 8.78812C17.7182 8.62019 17.5274 8.40925 17.383 8.16741C17.2385 7.92557 17.1432 7.65759 17.1025 7.37883C17.0619 7.10008 17.0766 6.81604 17.146 6.54301L17.143 6.55801L17.162 6.48601L12.216 3.62801ZM9.201 3.68701L9.141 3.62701L4.195 6.47901C4.35128 7.02094 4.28697 7.60269 4.0161 8.09741C3.74523 8.59214 3.28977 8.95971 2.749 9.12001L2.734 9.12401L2.658 9.14501V14.853L2.742 14.876L9.203 3.68601L9.201 3.68701ZM11.277 4.19401C10.8824 4.30717 10.4638 4.30579 10.07 4.19001L10.085 4.19401L3.625 15.383C3.911 15.659 4.121 16.012 4.222 16.409L4.225 16.424H17.136C17.238 16.011 17.449 15.656 17.735 15.381L17.736 15.38L11.28 4.19401H11.277ZM12.263 20.421L17.18 17.583C17.1654 17.5362 17.1527 17.4889 17.142 17.441H4.222L4.201 17.524L9.14 20.376C9.53 19.973 10.076 19.723 10.68 19.723C11.306 19.723 11.869 19.991 12.261 20.419L12.262 20.421H12.263Z" fill="white"/>
</g>
<defs>
<clipPath id="clip0_79_65">
<rect width="21" height="24" fill="white"/>
</clipPath>
</defs>
</svg>
