<svg width="104" height="24" viewBox="0 0 104 24" fill="none" xmlns="http://www.w3.org/2000/svg">
<path d="M19.7328 7.77095C19.4774 7.67255 19.2198 7.5814 18.9603 7.49758C19.0039 7.29758 19.044 7.1 19.0796 6.90589C19.6644 3.71842 19.2821 1.15052 17.9763 0.30505C16.7242 -0.505477 14.6767 0.339681 12.6087 2.36042C12.4049 2.55993 12.2056 2.76519 12.0111 2.976C11.8808 2.83581 11.7483 2.69835 11.6135 2.56368C9.44616 0.40305 7.27378 -0.507582 5.96934 0.340313C4.71844 1.15337 4.34803 3.56737 4.87453 6.58821C4.92691 6.88739 4.98606 7.18503 5.05191 7.48084C4.74441 7.57895 4.44769 7.68337 4.16372 7.79452C1.62272 8.78926 0 10.3481 0 11.9651C0 13.6351 1.74206 15.3101 4.38863 16.3258C4.60319 16.4078 4.81954 16.4838 5.03747 16.5537C4.96669 16.8723 4.90385 17.193 4.84903 17.5156C4.34709 20.484 4.73906 22.8409 5.98659 23.6488C7.27509 24.4832 9.43772 23.6257 11.5434 21.5588C11.7142 21.3908 11.8812 21.218 12.0443 21.0406C12.255 21.2689 12.4713 21.4905 12.693 21.7053C14.7328 23.676 16.7473 24.4718 17.9936 23.6617C19.2809 22.8249 19.6993 20.2929 19.1561 17.2124C19.1133 16.9711 19.0654 16.7309 19.0122 16.4922C19.1641 16.4417 19.3132 16.3897 19.4585 16.3356C22.2098 15.3121 24 13.6574 24 11.9651C24 10.3422 22.3249 8.77284 19.7328 7.77095V7.77095ZM19.1361 15.2429C19.0048 15.2917 18.8702 15.3387 18.7329 15.3845C18.4292 14.3048 18.0193 13.1568 17.5177 11.9706C17.9963 10.8127 18.3905 9.67937 18.6857 8.60673C18.9312 8.68652 19.1694 8.77063 19.3991 8.85937C21.6201 9.71789 22.9747 10.9871 22.9747 11.9651C22.9747 13.0067 21.5117 14.3591 19.1361 15.2429V15.2429ZM18.1504 17.436C18.3906 18.7981 18.4248 20.0297 18.2657 20.9925C18.1228 21.8577 17.8354 22.4344 17.4799 22.6655C16.7236 23.1571 15.1061 22.5181 13.3617 20.8326C13.1555 20.633 12.9543 20.4269 12.7582 20.2147C13.4346 19.3843 14.1104 18.4189 14.77 17.3467C15.9303 17.2312 17.0264 17.0421 18.0204 16.7841C18.0694 17.0059 18.1129 17.2234 18.1504 17.436V17.436ZM8.18213 22.5805C7.44319 22.8735 6.85462 22.8819 6.49884 22.6516C5.74181 22.1614 5.42709 20.2688 5.85637 17.7303C5.9074 17.4303 5.96583 17.132 6.03159 16.8357C7.01466 17.0799 8.10281 17.2555 9.26578 17.3614C9.92991 18.4105 10.6252 19.3748 11.326 20.2193C11.1771 20.3811 11.0247 20.5387 10.8688 20.6921C9.93759 21.606 9.0045 22.2544 8.18213 22.5805V22.5805ZM4.72031 15.2365C3.55003 14.7874 2.58356 14.2037 1.92113 13.5667C1.32581 12.9944 1.02534 12.4261 1.02534 11.9651C1.02534 10.9838 2.32819 9.73221 4.50122 8.88158C4.76494 8.77842 5.04094 8.68105 5.32734 8.58968C5.62772 9.68652 6.02166 10.8334 6.49706 11.9931C6.01547 13.1699 5.61591 14.3351 5.31262 15.4448C5.1137 15.3809 4.9162 15.3114 4.72031 15.2365V15.2365ZM5.88075 6.36705C5.42972 3.77894 5.72925 1.82663 6.48309 1.33663C7.28597 0.814734 9.06141 1.55884 10.9327 3.42452C11.0548 3.54646 11.1748 3.67086 11.2928 3.79768C10.5955 4.63842 9.90656 5.59558 9.24834 6.63852C8.11959 6.756 7.03912 6.94463 6.04575 7.19737C5.98455 6.92223 5.92953 6.6454 5.88075 6.36716V6.36705ZM16.2333 9.23737C15.9986 8.78231 15.7553 8.33297 15.5034 7.88968C16.2692 7.99842 17.0029 8.14273 17.6918 8.31916C17.485 9.06358 17.2272 9.84179 16.9238 10.6397C16.7019 10.1671 16.4717 9.6996 16.2333 9.23737V9.23737ZM12.0115 4.62042C12.4844 5.19568 12.958 5.83789 13.4239 6.53473C12.4789 6.48462 11.5323 6.48441 10.5873 6.5341C11.0536 5.84368 11.5313 5.20231 12.0115 4.62042ZM7.76269 9.24526C7.52722 9.70377 7.30131 10.1684 7.08516 10.6387C6.78666 9.84368 6.53119 9.06189 6.32259 8.30695C7.00734 8.13495 7.73756 7.99431 8.49844 7.88758C8.24376 8.33357 7.99844 8.78623 7.76269 9.24516V9.24526ZM8.52028 16.1244C7.73419 16.0259 6.993 15.8925 6.30844 15.7252C6.52031 14.9567 6.78141 14.1583 7.08637 13.3462C7.30339 13.8169 7.53024 14.2818 7.76672 14.7405C8.00991 15.2121 8.26172 15.674 8.52028 16.1244ZM12.0398 19.3907C11.5538 18.8021 11.0692 18.1508 10.5958 17.4504C11.0554 17.4706 11.5238 17.4809 12 17.4809C12.4892 17.4809 12.9728 17.4686 13.4487 17.4448C12.9814 18.1579 12.5095 18.8101 12.0398 19.3907ZM16.9334 13.3047C17.2542 14.1258 17.5246 14.92 17.7393 15.6753C17.0435 15.8536 16.2922 15.9972 15.5005 16.1038C15.7542 15.6523 15.9998 15.1951 16.2373 14.7326C16.4788 14.2625 16.7108 13.7864 16.9334 13.3047V13.3047ZM15.3492 14.1575C14.9857 14.8666 14.6017 15.5622 14.1979 16.2433C13.4664 16.3014 12.7333 16.3303 12 16.3299C11.2531 16.3299 10.5266 16.3038 9.82706 16.2528C9.41271 15.5733 9.0214 14.8765 8.65397 14.1638H8.65406C8.28836 13.4549 7.94677 12.7306 7.63003 11.9925C7.94597 11.2543 8.28652 10.5297 8.65097 9.82021L8.65088 9.82031C9.01519 9.11065 9.40337 8.41678 9.81459 7.74021C10.5283 7.67958 11.2602 7.648 11.9999 7.648H12C12.7431 7.648 13.4759 7.67989 14.1894 7.74095C14.5965 8.41651 14.9822 9.10799 15.3458 9.8141C15.7115 10.522 16.0566 11.2431 16.3805 11.9762C16.0599 12.7168 15.7159 13.4444 15.3492 14.1575V14.1575ZM17.4642 1.30231C18.2678 1.82273 18.5804 3.92137 18.0755 6.67347C18.0432 6.84905 18.007 7.02789 17.9677 7.20926C16.9718 6.95116 15.8906 6.75926 14.7586 6.64C14.0992 5.58558 13.4158 4.62694 12.7298 3.79705C12.9096 3.60247 13.0937 3.41294 13.2818 3.22863C15.0537 1.49737 16.7097 0.813786 17.4642 1.30231V1.30231ZM12 9.55873C13.1836 9.55873 14.1431 10.6361 14.1431 11.9651C14.1431 13.294 13.1836 14.3714 12 14.3714C10.8164 14.3714 9.85687 13.294 9.85687 11.9651C9.85687 10.6361 10.8164 9.55873 12 9.55873V9.55873Z" fill="white"/>
<path d="M33.328 23L31.336 19.58H30.016V23H28.924V14.636H31.624C32.256 14.636 32.788 14.744 33.22 14.96C33.66 15.176 33.988 15.468 34.204 15.836C34.42 16.204 34.528 16.624 34.528 17.096C34.528 17.672 34.36 18.18 34.024 18.62C33.696 19.06 33.2 19.352 32.536 19.496L34.636 23H33.328ZM30.016 18.704H31.624C32.216 18.704 32.66 18.56 32.956 18.272C33.252 17.976 33.4 17.584 33.4 17.096C33.4 16.6 33.252 16.216 32.956 15.944C32.668 15.672 32.224 15.536 31.624 15.536H30.016V18.704ZM42.2248 19.46C42.2248 19.668 42.2128 19.888 42.1888 20.12H36.9328C36.9728 20.768 37.1928 21.276 37.5928 21.644C38.0008 22.004 38.4928 22.184 39.0688 22.184C39.5408 22.184 39.9328 22.076 40.2448 21.86C40.5648 21.636 40.7888 21.34 40.9168 20.972H42.0928C41.9168 21.604 41.5648 22.12 41.0368 22.52C40.5088 22.912 39.8528 23.108 39.0688 23.108C38.4448 23.108 37.8848 22.968 37.3888 22.688C36.9008 22.408 36.5168 22.012 36.2368 21.5C35.9568 20.98 35.8168 20.38 35.8168 19.7C35.8168 19.02 35.9528 18.424 36.2248 17.912C36.4968 17.4 36.8768 17.008 37.3648 16.736C37.8608 16.456 38.4288 16.316 39.0688 16.316C39.6928 16.316 40.2448 16.452 40.7248 16.724C41.2048 16.996 41.5728 17.372 41.8288 17.852C42.0928 18.324 42.2248 18.86 42.2248 19.46ZM41.0968 19.232C41.0968 18.816 41.0048 18.46 40.8208 18.164C40.6368 17.86 40.3848 17.632 40.0648 17.48C39.7528 17.32 39.4048 17.24 39.0208 17.24C38.4688 17.24 37.9968 17.416 37.6048 17.768C37.2208 18.12 37.0008 18.608 36.9448 19.232H41.0968ZM43.2582 19.688C43.2582 19.016 43.3942 18.428 43.6662 17.924C43.9382 17.412 44.3102 17.016 44.7822 16.736C45.2622 16.456 45.7942 16.316 46.3782 16.316C46.9542 16.316 47.4542 16.44 47.8782 16.688C48.3022 16.936 48.6182 17.248 48.8262 17.624V16.424H49.9302V23H48.8262V21.776C48.6102 22.16 48.2862 22.48 47.8542 22.736C47.4302 22.984 46.9342 23.108 46.3662 23.108C45.7822 23.108 45.2542 22.964 44.7822 22.676C44.3102 22.388 43.9382 21.984 43.6662 21.464C43.3942 20.944 43.2582 20.352 43.2582 19.688ZM48.8262 19.7C48.8262 19.204 48.7262 18.772 48.5262 18.404C48.3262 18.036 48.0542 17.756 47.7102 17.564C47.3742 17.364 47.0022 17.264 46.5942 17.264C46.1862 17.264 45.8142 17.36 45.4782 17.552C45.1422 17.744 44.8742 18.024 44.6742 18.392C44.4742 18.76 44.3742 19.192 44.3742 19.688C44.3742 20.192 44.4742 20.632 44.6742 21.008C44.8742 21.376 45.1422 21.66 45.4782 21.86C45.8142 22.052 46.1862 22.148 46.5942 22.148C47.0022 22.148 47.3742 22.052 47.7102 21.86C48.0542 21.66 48.3262 21.376 48.5262 21.008C48.7262 20.632 48.8262 20.196 48.8262 19.7ZM51.3676 19.7C51.3676 19.02 51.5036 18.428 51.7756 17.924C52.0476 17.412 52.4236 17.016 52.9036 16.736C53.3916 16.456 53.9476 16.316 54.5716 16.316C55.3796 16.316 56.0436 16.512 56.5636 16.904C57.0916 17.296 57.4396 17.84 57.6076 18.536H56.4316C56.3196 18.136 56.0996 17.82 55.7716 17.588C55.4516 17.356 55.0516 17.24 54.5716 17.24C53.9476 17.24 53.4436 17.456 53.0596 17.888C52.6756 18.312 52.4836 18.916 52.4836 19.7C52.4836 20.492 52.6756 21.104 53.0596 21.536C53.4436 21.968 53.9476 22.184 54.5716 22.184C55.0516 22.184 55.4516 22.072 55.7716 21.848C56.0916 21.624 56.3116 21.304 56.4316 20.888H57.6076C57.4316 21.56 57.0796 22.1 56.5516 22.508C56.0236 22.908 55.3636 23.108 54.5716 23.108C53.9476 23.108 53.3916 22.968 52.9036 22.688C52.4236 22.408 52.0476 22.012 51.7756 21.5C51.5036 20.988 51.3676 20.388 51.3676 19.7ZM60.3966 17.324V21.2C60.3966 21.52 60.4646 21.748 60.6006 21.884C60.7366 22.012 60.9726 22.076 61.3086 22.076H62.1126V23H61.1286C60.5206 23 60.0646 22.86 59.7606 22.58C59.4566 22.3 59.3046 21.84 59.3046 21.2V17.324H58.4526V16.424H59.3046V14.768H60.3966V16.424H62.1126V17.324H60.3966ZM73.2109 23H72.1189L67.7269 16.34V23H66.6349V14.624H67.7269L72.1189 21.272V14.624H73.2109V23ZM74.6644 19.688C74.6644 19.016 74.8004 18.428 75.0724 17.924C75.3444 17.412 75.7164 17.016 76.1884 16.736C76.6684 16.456 77.2004 16.316 77.7844 16.316C78.3604 16.316 78.8604 16.44 79.2844 16.688C79.7084 16.936 80.0244 17.248 80.2324 17.624V16.424H81.3364V23H80.2324V21.776C80.0164 22.16 79.6924 22.48 79.2604 22.736C78.8364 22.984 78.3404 23.108 77.7724 23.108C77.1884 23.108 76.6604 22.964 76.1884 22.676C75.7164 22.388 75.3444 21.984 75.0724 21.464C74.8004 20.944 74.6644 20.352 74.6644 19.688ZM80.2324 19.7C80.2324 19.204 80.1324 18.772 79.9324 18.404C79.7324 18.036 79.4604 17.756 79.1164 17.564C78.7804 17.364 78.4084 17.264 78.0004 17.264C77.5924 17.264 77.2204 17.36 76.8844 17.552C76.5484 17.744 76.2804 18.024 76.0804 18.392C75.8804 18.76 75.7804 19.192 75.7804 19.688C75.7804 20.192 75.8804 20.632 76.0804 21.008C76.2804 21.376 76.5484 21.66 76.8844 21.86C77.2204 22.052 77.5924 22.148 78.0004 22.148C78.4084 22.148 78.7804 22.052 79.1164 21.86C79.4604 21.66 79.7324 21.376 79.9324 21.008C80.1324 20.632 80.2324 20.196 80.2324 19.7ZM84.5138 17.324V21.2C84.5138 21.52 84.5818 21.748 84.7178 21.884C84.8538 22.012 85.0898 22.076 85.4258 22.076H86.2298V23H85.2458C84.6378 23 84.1818 22.86 83.8778 22.58C83.5738 22.3 83.4218 21.84 83.4218 21.2V17.324H82.5698V16.424H83.4218V14.768H84.5138V16.424H86.2298V17.324H84.5138ZM88.1169 15.356C87.9089 15.356 87.7329 15.284 87.5889 15.14C87.4449 14.996 87.3729 14.82 87.3729 14.612C87.3729 14.404 87.4449 14.228 87.5889 14.084C87.7329 13.94 87.9089 13.868 88.1169 13.868C88.3169 13.868 88.4849 13.94 88.6209 14.084C88.7649 14.228 88.8369 14.404 88.8369 14.612C88.8369 14.82 88.7649 14.996 88.6209 15.14C88.4849 15.284 88.3169 15.356 88.1169 15.356ZM88.6449 16.424V23H87.5529V16.424H88.6449ZM92.954 21.992L94.994 16.424H96.158L93.578 23H92.306L89.726 16.424H90.902L92.954 21.992ZM103.233 19.46C103.233 19.668 103.221 19.888 103.197 20.12H97.9406C97.9806 20.768 98.2006 21.276 98.6006 21.644C99.0086 22.004 99.5006 22.184 100.077 22.184C100.549 22.184 100.941 22.076 101.253 21.86C101.573 21.636 101.797 21.34 101.925 20.972H103.101C102.925 21.604 102.573 22.12 102.045 22.52C101.517 22.912 100.861 23.108 100.077 23.108C99.4526 23.108 98.8926 22.968 98.3966 22.688C97.9086 22.408 97.5246 22.012 97.2446 21.5C96.9646 20.98 96.8246 20.38 96.8246 19.7C96.8246 19.02 96.9606 18.424 97.2326 17.912C97.5046 17.4 97.8846 17.008 98.3726 16.736C98.8686 16.456 99.4366 16.316 100.077 16.316C100.701 16.316 101.253 16.452 101.733 16.724C102.213 16.996 102.581 17.372 102.837 17.852C103.101 18.324 103.233 18.86 103.233 19.46ZM102.105 19.232C102.105 18.816 102.013 18.46 101.829 18.164C101.645 17.86 101.393 17.632 101.073 17.48C100.761 17.32 100.413 17.24 100.029 17.24C99.4766 17.24 99.0046 17.416 98.6126 17.768C98.2286 18.12 98.0086 18.608 97.9526 19.232H102.105Z" fill="white"/>
</svg>
