<svg width="71" height="24" viewBox="0 0 71 24" fill="none" xmlns="http://www.w3.org/2000/svg">
<path d="M32.5 21H31.408L27.016 14.34V21H25.924V12.624H27.016L31.408 19.272V12.624H32.5V21ZM37.2295 21.108C36.6135 21.108 36.0535 20.968 35.5495 20.688C35.0535 20.408 34.6615 20.012 34.3735 19.5C34.0935 18.98 33.9535 18.38 33.9535 17.7C33.9535 17.028 34.0975 16.436 34.3855 15.924C34.6815 15.404 35.0815 15.008 35.5855 14.736C36.0895 14.456 36.6535 14.316 37.2775 14.316C37.9015 14.316 38.4655 14.456 38.9695 14.736C39.4735 15.008 39.8695 15.4 40.1575 15.912C40.4535 16.424 40.6015 17.02 40.6015 17.7C40.6015 18.38 40.4495 18.98 40.1455 19.5C39.8495 20.012 39.4455 20.408 38.9335 20.688C38.4215 20.968 37.8535 21.108 37.2295 21.108ZM37.2295 20.148C37.6215 20.148 37.9895 20.056 38.3335 19.872C38.6775 19.688 38.9535 19.412 39.1615 19.044C39.3775 18.676 39.4855 18.228 39.4855 17.7C39.4855 17.172 39.3815 16.724 39.1735 16.356C38.9655 15.988 38.6935 15.716 38.3575 15.54C38.0215 15.356 37.6575 15.264 37.2655 15.264C36.8655 15.264 36.4975 15.356 36.1615 15.54C35.8335 15.716 35.5695 15.988 35.3695 16.356C35.1695 16.724 35.0695 17.172 35.0695 17.7C35.0695 18.236 35.1655 18.688 35.3575 19.056C35.5575 19.424 35.8215 19.7 36.1495 19.884C36.4775 20.06 36.8375 20.148 37.2295 20.148ZM41.6293 17.688C41.6293 17.016 41.7653 16.428 42.0373 15.924C42.3093 15.412 42.6813 15.016 43.1533 14.736C43.6333 14.456 44.1693 14.316 44.7613 14.316C45.2733 14.316 45.7493 14.436 46.1893 14.676C46.6293 14.908 46.9653 15.216 47.1973 15.6V12.12H48.3013V21H47.1973V19.764C46.9813 20.156 46.6613 20.48 46.2373 20.736C45.8133 20.984 45.3173 21.108 44.7493 21.108C44.1653 21.108 43.6333 20.964 43.1533 20.676C42.6813 20.388 42.3093 19.984 42.0373 19.464C41.7653 18.944 41.6293 18.352 41.6293 17.688ZM47.1973 17.7C47.1973 17.204 47.0973 16.772 46.8973 16.404C46.6973 16.036 46.4253 15.756 46.0813 15.564C45.7453 15.364 45.3733 15.264 44.9653 15.264C44.5573 15.264 44.1853 15.36 43.8493 15.552C43.5133 15.744 43.2453 16.024 43.0453 16.392C42.8453 16.76 42.7453 17.192 42.7453 17.688C42.7453 18.192 42.8453 18.632 43.0453 19.008C43.2453 19.376 43.5133 19.66 43.8493 19.86C44.1853 20.052 44.5573 20.148 44.9653 20.148C45.3733 20.148 45.7453 20.052 46.0813 19.86C46.4253 19.66 46.6973 19.376 46.8973 19.008C47.0973 18.632 47.1973 18.196 47.1973 17.7ZM56.1467 17.46C56.1467 17.668 56.1347 17.888 56.1107 18.12H50.8547C50.8947 18.768 51.1147 19.276 51.5147 19.644C51.9227 20.004 52.4147 20.184 52.9907 20.184C53.4627 20.184 53.8547 20.076 54.1667 19.86C54.4867 19.636 54.7107 19.34 54.8387 18.972H56.0147C55.8387 19.604 55.4867 20.12 54.9587 20.52C54.4307 20.912 53.7747 21.108 52.9907 21.108C52.3667 21.108 51.8067 20.968 51.3107 20.688C50.8227 20.408 50.4387 20.012 50.1587 19.5C49.8787 18.98 49.7387 18.38 49.7387 17.7C49.7387 17.02 49.8747 16.424 50.1467 15.912C50.4187 15.4 50.7987 15.008 51.2867 14.736C51.7827 14.456 52.3507 14.316 52.9907 14.316C53.6147 14.316 54.1667 14.452 54.6467 14.724C55.1267 14.996 55.4947 15.372 55.7507 15.852C56.0147 16.324 56.1467 16.86 56.1467 17.46ZM55.0187 17.232C55.0187 16.816 54.9267 16.46 54.7427 16.164C54.5587 15.86 54.3067 15.632 53.9867 15.48C53.6747 15.32 53.3267 15.24 52.9427 15.24C52.3907 15.24 51.9187 15.416 51.5267 15.768C51.1427 16.12 50.9227 16.608 50.8667 17.232H55.0187ZM61.8001 12.636V18.816C61.8001 19.504 61.5881 20.056 61.1641 20.472C60.7401 20.88 60.1801 21.084 59.4841 21.084C58.7801 21.084 58.2161 20.876 57.7921 20.46C57.3681 20.036 57.1561 19.46 57.1561 18.732H58.2481C58.2561 19.14 58.3601 19.472 58.5601 19.728C58.7681 19.984 59.0761 20.112 59.4841 20.112C59.8921 20.112 60.1961 19.992 60.3961 19.752C60.5961 19.504 60.6961 19.192 60.6961 18.816V12.636H61.8001ZM66.2793 21.108C65.7753 21.108 65.3233 21.024 64.9233 20.856C64.5233 20.68 64.2073 20.44 63.9753 20.136C63.7433 19.824 63.6153 19.468 63.5913 19.068H64.7193C64.7513 19.396 64.9033 19.664 65.1753 19.872C65.4553 20.08 65.8193 20.184 66.2673 20.184C66.6833 20.184 67.0113 20.092 67.2513 19.908C67.4913 19.724 67.6113 19.492 67.6113 19.212C67.6113 18.924 67.4833 18.712 67.2273 18.576C66.9713 18.432 66.5753 18.292 66.0393 18.156C65.5513 18.028 65.1513 17.9 64.8393 17.772C64.5353 17.636 64.2713 17.44 64.0473 17.184C63.8313 16.92 63.7233 16.576 63.7233 16.152C63.7233 15.816 63.8233 15.508 64.0233 15.228C64.2233 14.948 64.5073 14.728 64.8753 14.568C65.2433 14.4 65.6633 14.316 66.1353 14.316C66.8633 14.316 67.4513 14.5 67.8993 14.868C68.3473 15.236 68.5873 15.74 68.6193 16.38H67.5273C67.5033 16.036 67.3633 15.76 67.1073 15.552C66.8593 15.344 66.5233 15.24 66.0993 15.24C65.7073 15.24 65.3953 15.324 65.1633 15.492C64.9313 15.66 64.8153 15.88 64.8153 16.152C64.8153 16.368 64.8833 16.548 65.0193 16.692C65.1633 16.828 65.3393 16.94 65.5473 17.028C65.7633 17.108 66.0593 17.2 66.4353 17.304C66.9073 17.432 67.2913 17.56 67.5873 17.688C67.8833 17.808 68.1353 17.992 68.3433 18.24C68.5593 18.488 68.6713 18.812 68.6793 19.212C68.6793 19.572 68.5793 19.896 68.3793 20.184C68.1793 20.472 67.8953 20.7 67.5273 20.868C67.1673 21.028 66.7513 21.108 66.2793 21.108Z" fill="white"/>
<path d="M12 1.85001C11.73 1.85001 11.45 1.92001 11.22 2.05001L3.78 6.35001C3.3 6.63001 3 7.15001 3 7.71001V16.29C3 16.85 3.3 17.37 3.78 17.65L5.73 18.77C6.68 19.23 7 19.24 7.44 19.24C8.84 19.24 9.65 18.39 9.65 16.91V8.44001C9.65 8.32001 9.55 8.22001 9.43 8.22001H8.5C8.37 8.22001 8.27 8.32001 8.27 8.44001V16.91C8.27 17.57 7.59 18.22 6.5 17.67L4.45 16.5C4.41633 16.4762 4.3888 16.4448 4.36967 16.4083C4.35055 16.3718 4.34038 16.3312 4.34 16.29V7.71001C4.34 7.62001 4.38 7.54001 4.45 7.50001L11.89 3.21001C11.95 3.17001 12.05 3.17001 12.11 3.21001L19.55 7.50001C19.62 7.54001 19.66 7.62001 19.66 7.71001V16.29C19.66 16.37 19.62 16.45 19.55 16.5L12.11 20.79C12.05 20.83 11.95 20.83 11.88 20.79L10 19.65C9.92 19.62 9.84 19.61 9.79 19.64C9.26 19.94 9.16 20 8.67 20.15C8.55 20.19 8.36 20.26 8.74 20.47L11.22 21.94C11.46 22.08 11.72 22.15 12 22.15C12.28 22.15 12.54 22.08 12.78 21.94L20.22 17.65C20.7 17.37 21 16.85 21 16.29V7.71001C21 7.15001 20.7 6.63001 20.22 6.35001L12.78 2.05001C12.55 1.92001 12.28 1.85001 12 1.85001V1.85001ZM14 8.00001C11.88 8.00001 10.61 8.89001 10.61 10.39C10.61 12 11.87 12.47 13.91 12.67C16.34 12.91 16.53 13.27 16.53 13.75C16.53 14.58 15.86 14.93 14.3 14.93C12.32 14.93 11.9 14.44 11.75 13.46C11.7395 13.4094 11.7119 13.3638 11.6718 13.3311C11.6318 13.2983 11.5817 13.2803 11.53 13.28H10.57C10.45 13.28 10.36 13.37 10.36 13.5C10.36 14.74 11.04 16.24 14.3 16.24C16.65 16.24 18 15.31 18 13.69C18 12.08 16.92 11.66 14.63 11.35C12.32 11.05 12.09 10.89 12.09 10.35C12.09 9.90001 12.29 9.30001 14 9.30001C15.5 9.30001 16.09 9.63001 16.32 10.66C16.34 10.76 16.43 10.83 16.53 10.83H17.5C17.55 10.83 17.61 10.81 17.65 10.76C17.69 10.72 17.72 10.66 17.7 10.6C17.56 8.82001 16.38 8.00001 14 8.00001Z" fill="white"/>
</svg>
