<svg width="66" height="24" viewBox="0 0 66 24" fill="none" xmlns="http://www.w3.org/2000/svg">
<path d="M34.5 23H33.408L29.016 16.34V23H27.924V14.624H29.016L33.408 21.272V14.624H34.5V23ZM42.3615 19.46C42.3615 19.668 42.3495 19.888 42.3255 20.12H37.0695C37.1095 20.768 37.3295 21.276 37.7295 21.644C38.1375 22.004 38.6295 22.184 39.2055 22.184C39.6775 22.184 40.0695 22.076 40.3815 21.86C40.7015 21.636 40.9255 21.34 41.0535 20.972H42.2295C42.0535 21.604 41.7015 22.12 41.1735 22.52C40.6455 22.912 39.9895 23.108 39.2055 23.108C38.5815 23.108 38.0215 22.968 37.5255 22.688C37.0375 22.408 36.6535 22.012 36.3735 21.5C36.0935 20.98 35.9535 20.38 35.9535 19.7C35.9535 19.02 36.0895 18.424 36.3615 17.912C36.6335 17.4 37.0135 17.008 37.5015 16.736C37.9975 16.456 38.5655 16.316 39.2055 16.316C39.8295 16.316 40.3815 16.452 40.8615 16.724C41.3415 16.996 41.7095 17.372 41.9655 17.852C42.2295 18.324 42.3615 18.86 42.3615 19.46ZM41.2335 19.232C41.2335 18.816 41.1415 18.46 40.9575 18.164C40.7735 17.86 40.5215 17.632 40.2015 17.48C39.8895 17.32 39.5415 17.24 39.1575 17.24C38.6055 17.24 38.1335 17.416 37.7415 17.768C37.3575 18.12 37.1375 18.608 37.0815 19.232H41.2335ZM47.2349 23L45.6749 20.552L44.1749 23H43.0349L45.1589 19.736L43.0349 16.424H44.2709L45.8309 18.86L47.3189 16.424H48.4589L46.3469 19.676L48.4709 23H47.2349ZM50.8771 17.324V21.2C50.8771 21.52 50.9451 21.748 51.0811 21.884C51.2171 22.012 51.4531 22.076 51.7891 22.076H52.5931V23H51.6091C51.0011 23 50.5451 22.86 50.2411 22.58C49.9371 22.3 49.7851 21.84 49.7851 21.2V17.324H48.9331V16.424H49.7851V14.768H50.8771V16.424H52.5931V17.324H50.8771ZM58.1282 14.636V20.816C58.1282 21.504 57.9162 22.056 57.4922 22.472C57.0682 22.88 56.5082 23.084 55.8122 23.084C55.1082 23.084 54.5442 22.876 54.1202 22.46C53.6962 22.036 53.4842 21.46 53.4842 20.732H54.5762C54.5842 21.14 54.6882 21.472 54.8882 21.728C55.0962 21.984 55.4042 22.112 55.8122 22.112C56.2202 22.112 56.5242 21.992 56.7242 21.752C56.9242 21.504 57.0242 21.192 57.0242 20.816V14.636H58.1282ZM62.6075 23.108C62.1035 23.108 61.6515 23.024 61.2515 22.856C60.8515 22.68 60.5355 22.44 60.3035 22.136C60.0715 21.824 59.9435 21.468 59.9195 21.068H61.0475C61.0795 21.396 61.2315 21.664 61.5035 21.872C61.7835 22.08 62.1475 22.184 62.5955 22.184C63.0115 22.184 63.3395 22.092 63.5795 21.908C63.8195 21.724 63.9395 21.492 63.9395 21.212C63.9395 20.924 63.8115 20.712 63.5555 20.576C63.2995 20.432 62.9035 20.292 62.3675 20.156C61.8795 20.028 61.4795 19.9 61.1675 19.772C60.8635 19.636 60.5995 19.44 60.3755 19.184C60.1595 18.92 60.0515 18.576 60.0515 18.152C60.0515 17.816 60.1515 17.508 60.3515 17.228C60.5515 16.948 60.8355 16.728 61.2035 16.568C61.5715 16.4 61.9915 16.316 62.4635 16.316C63.1915 16.316 63.7795 16.5 64.2275 16.868C64.6755 17.236 64.9155 17.74 64.9475 18.38H63.8555C63.8315 18.036 63.6915 17.76 63.4355 17.552C63.1875 17.344 62.8515 17.24 62.4275 17.24C62.0355 17.24 61.7235 17.324 61.4915 17.492C61.2595 17.66 61.1435 17.88 61.1435 18.152C61.1435 18.368 61.2115 18.548 61.3475 18.692C61.4915 18.828 61.6675 18.94 61.8755 19.028C62.0915 19.108 62.3875 19.2 62.7635 19.304C63.2355 19.432 63.6195 19.56 63.9155 19.688C64.2115 19.808 64.4635 19.992 64.6715 20.24C64.8875 20.488 64.9995 20.812 65.0075 21.212C65.0075 21.572 64.9075 21.896 64.7075 22.184C64.5075 22.472 64.2235 22.7 63.8555 22.868C63.4955 23.028 63.0795 23.108 62.6075 23.108Z" fill="white"/>
<g clip-path="url(#clip0_79_66)">
<path d="M18.1125 1.66438C10.1747 -3.00292 0.0883718 2.6976 0.000574848 11.9007C-0.0851127 20.8873 9.42541 26.6918 17.3453 22.7364L8.69814 10.0141V17.889C8.69814 18.7615 7.0285 18.7615 7.0285 17.889V7.33217C7.0285 6.63955 8.31513 6.58269 8.67972 7.18475L18.5358 22.058C25.9397 17.2891 25.8397 6.20788 18.1125 1.66438V1.66438ZM16.9989 16.5678L15.3239 14.0095V7.00578C15.3239 6.35272 16.9989 6.35272 16.9989 7.00578V16.5678H16.9989Z" fill="white"/>
</g>
<defs>
<clipPath id="clip0_79_66">
<rect width="24" height="24" fill="white"/>
</clipPath>
</defs>
</svg>
