<svg width="72" height="28" viewBox="0 0 72 28" fill="none" xmlns="http://www.w3.org/2000/svg">
<path d="M29.328 23L27.336 19.58H26.016V23H24.924V14.636H27.624C28.256 14.636 28.788 14.744 29.22 14.96C29.66 15.176 29.988 15.468 30.204 15.836C30.42 16.204 30.528 16.624 30.528 17.096C30.528 17.672 30.36 18.18 30.024 18.62C29.696 19.06 29.2 19.352 28.536 19.496L30.636 23H29.328ZM26.016 18.704H27.624C28.216 18.704 28.66 18.56 28.956 18.272C29.252 17.976 29.4 17.584 29.4 17.096C29.4 16.6 29.252 16.216 28.956 15.944C28.668 15.672 28.224 15.536 27.624 15.536H26.016V18.704ZM38.2248 19.46C38.2248 19.668 38.2128 19.888 38.1888 20.12H32.9328C32.9728 20.768 33.1928 21.276 33.5928 21.644C34.0008 22.004 34.4928 22.184 35.0688 22.184C35.5408 22.184 35.9328 22.076 36.2448 21.86C36.5648 21.636 36.7888 21.34 36.9168 20.972H38.0928C37.9168 21.604 37.5648 22.12 37.0368 22.52C36.5088 22.912 35.8528 23.108 35.0688 23.108C34.4448 23.108 33.8848 22.968 33.3888 22.688C32.9008 22.408 32.5168 22.012 32.2368 21.5C31.9568 20.98 31.8168 20.38 31.8168 19.7C31.8168 19.02 31.9528 18.424 32.2248 17.912C32.4968 17.4 32.8768 17.008 33.3648 16.736C33.8608 16.456 34.4288 16.316 35.0688 16.316C35.6928 16.316 36.2448 16.452 36.7248 16.724C37.2048 16.996 37.5728 17.372 37.8288 17.852C38.0928 18.324 38.2248 18.86 38.2248 19.46ZM37.0968 19.232C37.0968 18.816 37.0048 18.46 36.8208 18.164C36.6368 17.86 36.3848 17.632 36.0648 17.48C35.7528 17.32 35.4048 17.24 35.0208 17.24C34.4688 17.24 33.9968 17.416 33.6048 17.768C33.2208 18.12 33.0008 18.608 32.9448 19.232H37.0968ZM39.2582 19.688C39.2582 19.016 39.3942 18.428 39.6662 17.924C39.9382 17.412 40.3102 17.016 40.7822 16.736C41.2622 16.456 41.7942 16.316 42.3782 16.316C42.9542 16.316 43.4542 16.44 43.8782 16.688C44.3022 16.936 44.6182 17.248 44.8262 17.624V16.424H45.9302V23H44.8262V21.776C44.6102 22.16 44.2862 22.48 43.8542 22.736C43.4302 22.984 42.9342 23.108 42.3662 23.108C41.7822 23.108 41.2542 22.964 40.7822 22.676C40.3102 22.388 39.9382 21.984 39.6662 21.464C39.3942 20.944 39.2582 20.352 39.2582 19.688ZM44.8262 19.7C44.8262 19.204 44.7262 18.772 44.5262 18.404C44.3262 18.036 44.0542 17.756 43.7102 17.564C43.3742 17.364 43.0022 17.264 42.5942 17.264C42.1862 17.264 41.8142 17.36 41.4782 17.552C41.1422 17.744 40.8742 18.024 40.6742 18.392C40.4742 18.76 40.3742 19.192 40.3742 19.688C40.3742 20.192 40.4742 20.632 40.6742 21.008C40.8742 21.376 41.1422 21.66 41.4782 21.86C41.8142 22.052 42.1862 22.148 42.5942 22.148C43.0022 22.148 43.3742 22.052 43.7102 21.86C44.0542 21.66 44.3262 21.376 44.5262 21.008C44.7262 20.632 44.8262 20.196 44.8262 19.7ZM47.3676 19.7C47.3676 19.02 47.5036 18.428 47.7756 17.924C48.0476 17.412 48.4236 17.016 48.9036 16.736C49.3916 16.456 49.9476 16.316 50.5716 16.316C51.3796 16.316 52.0436 16.512 52.5636 16.904C53.0916 17.296 53.4396 17.84 53.6076 18.536H52.4316C52.3196 18.136 52.0996 17.82 51.7716 17.588C51.4516 17.356 51.0516 17.24 50.5716 17.24C49.9476 17.24 49.4436 17.456 49.0596 17.888C48.6756 18.312 48.4836 18.916 48.4836 19.7C48.4836 20.492 48.6756 21.104 49.0596 21.536C49.4436 21.968 49.9476 22.184 50.5716 22.184C51.0516 22.184 51.4516 22.072 51.7716 21.848C52.0916 21.624 52.3116 21.304 52.4316 20.888H53.6076C53.4316 21.56 53.0796 22.1 52.5516 22.508C52.0236 22.908 51.3636 23.108 50.5716 23.108C49.9476 23.108 49.3916 22.968 48.9036 22.688C48.4236 22.408 48.0476 22.012 47.7756 21.5C47.5036 20.988 47.3676 20.388 47.3676 19.7ZM56.3966 17.324V21.2C56.3966 21.52 56.4646 21.748 56.6006 21.884C56.7366 22.012 56.9726 22.076 57.3086 22.076H58.1126V23H57.1286C56.5206 23 56.0646 22.86 55.7606 22.58C55.4566 22.3 55.3046 21.84 55.3046 21.2V17.324H54.4526V16.424H55.3046V14.768H56.3966V16.424H58.1126V17.324H56.3966ZM63.6477 14.636V20.816C63.6477 21.504 63.4357 22.056 63.0117 22.472C62.5877 22.88 62.0277 23.084 61.3317 23.084C60.6277 23.084 60.0637 22.876 59.6397 22.46C59.2157 22.036 59.0037 21.46 59.0037 20.732H60.0957C60.1037 21.14 60.2077 21.472 60.4077 21.728C60.6157 21.984 60.9237 22.112 61.3317 22.112C61.7397 22.112 62.0437 21.992 62.2437 21.752C62.4437 21.504 62.5437 21.192 62.5437 20.816V14.636H63.6477ZM68.451 23.084C67.899 23.084 67.403 22.988 66.963 22.796C66.531 22.596 66.191 22.324 65.943 21.98C65.695 21.628 65.567 21.224 65.559 20.768H66.723C66.763 21.16 66.923 21.492 67.203 21.764C67.491 22.028 67.907 22.16 68.451 22.16C68.971 22.16 69.379 22.032 69.675 21.776C69.979 21.512 70.131 21.176 70.131 20.768C70.131 20.448 70.043 20.188 69.867 19.988C69.691 19.788 69.471 19.636 69.207 19.532C68.943 19.428 68.587 19.316 68.139 19.196C67.587 19.052 67.143 18.908 66.807 18.764C66.479 18.62 66.195 18.396 65.955 18.092C65.723 17.78 65.607 17.364 65.607 16.844C65.607 16.388 65.723 15.984 65.955 15.632C66.187 15.28 66.511 15.008 66.927 14.816C67.351 14.624 67.835 14.528 68.379 14.528C69.163 14.528 69.803 14.724 70.299 15.116C70.803 15.508 71.087 16.028 71.151 16.676H69.951C69.911 16.356 69.743 16.076 69.447 15.836C69.151 15.588 68.759 15.464 68.271 15.464C67.815 15.464 67.443 15.584 67.155 15.824C66.867 16.056 66.723 16.384 66.723 16.808C66.723 17.112 66.807 17.36 66.975 17.552C67.151 17.744 67.363 17.892 67.611 17.996C67.867 18.092 68.223 18.204 68.679 18.332C69.231 18.484 69.675 18.636 70.011 18.788C70.347 18.932 70.635 19.16 70.875 19.472C71.115 19.776 71.235 20.192 71.235 20.72C71.235 21.128 71.127 21.512 70.911 21.872C70.695 22.232 70.375 22.524 69.951 22.748C69.527 22.972 69.027 23.084 68.451 23.084Z" fill="white"/>
<path d="M19.7328 7.77096C19.4774 7.67257 19.2198 7.58142 18.9603 7.49759C19.0039 7.29759 19.044 7.10001 19.0796 6.90591C19.6644 3.71843 19.2821 1.15054 17.9763 0.305065C16.7242 -0.505462 14.6767 0.339696 12.6087 2.36043C12.4049 2.55994 12.2056 2.7652 12.0111 2.97601C11.8808 2.83583 11.7483 2.69837 11.6135 2.5637C9.44616 0.403065 7.27378 -0.507567 5.96934 0.340328C4.71844 1.15338 4.34803 3.56738 4.87453 6.58822C4.92691 6.88741 4.98606 7.18505 5.05191 7.48086C4.74441 7.57896 4.44769 7.68338 4.16372 7.79454C1.62272 8.78928 0 10.3481 0 11.9651C0 13.6351 1.74206 15.3101 4.38863 16.3258C4.60319 16.4078 4.81954 16.4838 5.03747 16.5537C4.96669 16.8723 4.90385 17.1931 4.84903 17.5156C4.34709 20.484 4.73906 22.841 5.98659 23.6489C7.27509 24.4832 9.43772 23.6257 11.5434 21.5589C11.7142 21.3908 11.8812 21.218 12.0443 21.0406C12.255 21.2689 12.4713 21.4905 12.693 21.7053C14.7328 23.676 16.7473 24.4718 17.9936 23.6617C19.2809 22.825 19.6993 20.293 19.1561 17.2124C19.1133 16.9711 19.0654 16.731 19.0122 16.4922C19.1641 16.4417 19.3132 16.3897 19.4585 16.3356C22.2098 15.3121 24 13.6574 24 11.9651C24 10.3422 22.3249 8.77286 19.7328 7.77096V7.77096ZM19.1361 15.243C19.0048 15.2917 18.8702 15.3388 18.7329 15.3845C18.4292 14.3049 18.0193 13.1569 17.5177 11.9706C17.9963 10.8128 18.3905 9.67938 18.6857 8.60675C18.9312 8.68654 19.1694 8.77065 19.3991 8.85938C21.6201 9.71791 22.9747 10.9871 22.9747 11.9651C22.9747 13.0068 21.5117 14.3591 19.1361 15.243V15.243ZM18.1504 17.436C18.3906 18.7981 18.4248 20.0297 18.2657 20.9925C18.1228 21.8577 17.8354 22.4344 17.4799 22.6655C16.7236 23.1571 15.1061 22.5181 13.3617 20.8326C13.1555 20.633 12.9543 20.427 12.7582 20.2148C13.4346 19.3843 14.1104 18.419 14.77 17.3468C15.9303 17.2312 17.0264 17.0421 18.0204 16.7841C18.0694 17.0059 18.1129 17.2234 18.1504 17.436V17.436ZM8.18213 22.5805C7.44319 22.8735 6.85462 22.8819 6.49884 22.6516C5.74181 22.1614 5.42709 20.2689 5.85637 17.7303C5.9074 17.4304 5.96583 17.132 6.03159 16.8357C7.01466 17.0799 8.10281 17.2555 9.26578 17.3614C9.92991 18.4105 10.6252 19.3749 11.326 20.2193C11.1771 20.3811 11.0247 20.5387 10.8688 20.6921C9.93759 21.606 9.0045 22.2544 8.18213 22.5805V22.5805ZM4.72031 15.2365C3.55003 14.7874 2.58356 14.2037 1.92113 13.5668C1.32581 12.9944 1.02534 12.4261 1.02534 11.9651C1.02534 10.9838 2.32819 9.73222 4.50122 8.88159C4.76494 8.77843 5.04094 8.68107 5.32734 8.5897C5.62772 9.68654 6.02166 10.8334 6.49706 11.9931C6.01547 13.1699 5.61591 14.3351 5.31262 15.4449C5.1137 15.3809 4.9162 15.3114 4.72031 15.2365V15.2365ZM5.88075 6.36707C5.42972 3.77896 5.72925 1.82664 6.48309 1.33664C7.28597 0.814749 9.06141 1.55885 10.9327 3.42454C11.0548 3.54647 11.1748 3.67088 11.2928 3.7977C10.5955 4.63843 9.90656 5.59559 9.24834 6.63854C8.11959 6.75601 7.03912 6.94464 6.04575 7.19738C5.98455 6.92225 5.92953 6.64542 5.88075 6.36717V6.36707ZM16.2333 9.23738C15.9986 8.78232 15.7553 8.33299 15.5034 7.8897C16.2692 7.99843 17.0029 8.14275 17.6918 8.31917C17.485 9.06359 17.2272 9.8418 16.9238 10.6397C16.7019 10.1671 16.4717 9.69961 16.2333 9.23738V9.23738ZM12.0115 4.62043C12.4844 5.1957 12.958 5.83791 13.4239 6.53475C12.4789 6.48464 11.5323 6.48443 10.5873 6.53412C11.0536 5.8437 11.5313 5.20233 12.0115 4.62043ZM7.76269 9.24528C7.52722 9.70379 7.30131 10.1684 7.08516 10.6388C6.78666 9.8437 6.53119 9.06191 6.32259 8.30696C7.00734 8.13496 7.73756 7.99433 8.49844 7.88759C8.24376 8.33359 7.99844 8.78624 7.76269 9.24517V9.24528ZM8.52028 16.1244C7.73419 16.0259 6.993 15.8925 6.30844 15.7252C6.52031 14.9568 6.78141 14.1583 7.08637 13.3462C7.30339 13.8169 7.53024 14.2818 7.76672 14.7405C8.00991 15.2121 8.26172 15.674 8.52028 16.1244ZM12.0398 19.3908C11.5538 18.8021 11.0692 18.1509 10.5958 17.4504C11.0554 17.4706 11.5238 17.481 12 17.481C12.4892 17.481 12.9728 17.4686 13.4487 17.4449C12.9814 18.1579 12.5095 18.8101 12.0398 19.3908ZM16.9334 13.3048C17.2542 14.1258 17.5246 14.92 17.7393 15.6753C17.0435 15.8536 16.2922 15.9972 15.5005 16.1038C15.7542 15.6523 15.9998 15.1951 16.2373 14.7326C16.4788 14.2625 16.7108 13.7865 16.9334 13.3048V13.3048ZM15.3492 14.1575C14.9857 14.8666 14.6017 15.5622 14.1979 16.2433C13.4664 16.3014 12.7333 16.3303 12 16.3299C11.2531 16.3299 10.5266 16.3038 9.82706 16.2529C9.41271 15.5734 9.0214 14.8765 8.65397 14.1638H8.65406C8.28836 13.4549 7.94677 12.7306 7.63003 11.9925C7.94597 11.2543 8.28652 10.5297 8.65097 9.82022L8.65088 9.82033C9.01519 9.11067 9.40337 8.4168 9.81459 7.74022C10.5283 7.67959 11.2602 7.64801 11.9999 7.64801H12C12.7431 7.64801 13.4759 7.67991 14.1894 7.74096C14.5965 8.41652 14.9822 9.10801 15.3458 9.81412C15.7115 10.522 16.0566 11.2431 16.3805 11.9762C16.0599 12.7168 15.7159 13.4444 15.3492 14.1575V14.1575ZM17.4642 1.30233C18.2678 1.82275 18.5804 3.92138 18.0755 6.67349C18.0432 6.84907 18.007 7.02791 17.9677 7.20928C16.9718 6.95117 15.8906 6.75928 14.7586 6.64001C14.0992 5.58559 13.4158 4.62696 12.7298 3.79707C12.9096 3.60249 13.0937 3.41296 13.2818 3.22864C15.0537 1.49738 16.7097 0.813802 17.4642 1.30233V1.30233ZM12 9.55875C13.1836 9.55875 14.1431 10.6361 14.1431 11.9651C14.1431 13.294 13.1836 14.3714 12 14.3714C10.8164 14.3714 9.85687 13.294 9.85687 11.9651C9.85687 10.6361 10.8164 9.55875 12 9.55875V9.55875Z" fill="white"/>
</svg>
