<svg width="78" height="25" viewBox="0 0 78 25" fill="none" xmlns="http://www.w3.org/2000/svg">
<path d="M31.408 12.696V21H30.316V14.808L27.556 21H26.788L24.016 14.796V21H22.924V12.696H24.1L27.172 19.56L30.244 12.696H31.408ZM36.1279 21.108C35.5119 21.108 34.9519 20.968 34.4479 20.688C33.9519 20.408 33.5599 20.012 33.2719 19.5C32.9919 18.98 32.8519 18.38 32.8519 17.7C32.8519 17.028 32.9959 16.436 33.2839 15.924C33.5799 15.404 33.9799 15.008 34.4839 14.736C34.9879 14.456 35.5519 14.316 36.1759 14.316C36.7999 14.316 37.3639 14.456 37.8679 14.736C38.3719 15.008 38.7679 15.4 39.0559 15.912C39.3519 16.424 39.4999 17.02 39.4999 17.7C39.4999 18.38 39.3479 18.98 39.0439 19.5C38.7479 20.012 38.3439 20.408 37.8319 20.688C37.3199 20.968 36.7519 21.108 36.1279 21.108ZM36.1279 20.148C36.5199 20.148 36.8879 20.056 37.2319 19.872C37.5759 19.688 37.8519 19.412 38.0599 19.044C38.2759 18.676 38.3839 18.228 38.3839 17.7C38.3839 17.172 38.2799 16.724 38.0719 16.356C37.8639 15.988 37.5919 15.716 37.2559 15.54C36.9199 15.356 36.5559 15.264 36.1639 15.264C35.7639 15.264 35.3959 15.356 35.0599 15.54C34.7319 15.716 34.4679 15.988 34.2679 16.356C34.0679 16.724 33.9679 17.172 33.9679 17.7C33.9679 18.236 34.0639 18.688 34.2559 19.056C34.4559 19.424 34.7199 19.7 35.0479 19.884C35.3759 20.06 35.7359 20.148 36.1279 20.148ZM40.5277 17.7C40.5277 17.02 40.6637 16.428 40.9357 15.924C41.2077 15.412 41.5837 15.016 42.0637 14.736C42.5517 14.456 43.1077 14.316 43.7317 14.316C44.5397 14.316 45.2037 14.512 45.7237 14.904C46.2517 15.296 46.5997 15.84 46.7677 16.536H45.5917C45.4797 16.136 45.2597 15.82 44.9317 15.588C44.6117 15.356 44.2117 15.24 43.7317 15.24C43.1077 15.24 42.6037 15.456 42.2197 15.888C41.8357 16.312 41.6437 16.916 41.6437 17.7C41.6437 18.492 41.8357 19.104 42.2197 19.536C42.6037 19.968 43.1077 20.184 43.7317 20.184C44.2117 20.184 44.6117 20.072 44.9317 19.848C45.2517 19.624 45.4717 19.304 45.5917 18.888H46.7677C46.5917 19.56 46.2397 20.1 45.7117 20.508C45.1837 20.908 44.5237 21.108 43.7317 21.108C43.1077 21.108 42.5517 20.968 42.0637 20.688C41.5837 20.408 41.2077 20.012 40.9357 19.5C40.6637 18.988 40.5277 18.388 40.5277 17.7ZM51.8968 21L49.3168 18.096V21H48.2248V12.12H49.3168V17.34L51.8488 14.424H53.3728L50.2768 17.7L53.3848 21H51.8968ZM60.2326 14.424V21H59.1406V20.028C58.9326 20.364 58.6406 20.628 58.2646 20.82C57.8966 21.004 57.4886 21.096 57.0406 21.096C56.5286 21.096 56.0686 20.992 55.6606 20.784C55.2526 20.568 54.9286 20.248 54.6886 19.824C54.4566 19.4 54.3406 18.884 54.3406 18.276V14.424H55.4206V18.132C55.4206 18.78 55.5846 19.28 55.9126 19.632C56.2406 19.976 56.6886 20.148 57.2566 20.148C57.8406 20.148 58.3006 19.968 58.6366 19.608C58.9726 19.248 59.1406 18.724 59.1406 18.036V14.424H60.2326ZM63.1683 15.636C63.3843 15.26 63.7043 14.948 64.1283 14.7C64.5603 14.444 65.0603 14.316 65.6283 14.316C66.2123 14.316 66.7403 14.456 67.2123 14.736C67.6923 15.016 68.0683 15.412 68.3403 15.924C68.6123 16.428 68.7483 17.016 68.7483 17.688C68.7483 18.352 68.6123 18.944 68.3403 19.464C68.0683 19.984 67.6923 20.388 67.2123 20.676C66.7403 20.964 66.2123 21.108 65.6283 21.108C65.0683 21.108 64.5723 20.984 64.1403 20.736C63.7163 20.48 63.3923 20.164 63.1683 19.788V24.12H62.0763V14.424H63.1683V15.636ZM67.6323 17.688C67.6323 17.192 67.5323 16.76 67.3323 16.392C67.1323 16.024 66.8603 15.744 66.5163 15.552C66.1803 15.36 65.8083 15.264 65.4003 15.264C65.0003 15.264 64.6283 15.364 64.2843 15.564C63.9483 15.756 63.6763 16.04 63.4683 16.416C63.2683 16.784 63.1683 17.212 63.1683 17.7C63.1683 18.196 63.2683 18.632 63.4683 19.008C63.6763 19.376 63.9483 19.66 64.2843 19.86C64.6283 20.052 65.0003 20.148 65.4003 20.148C65.8083 20.148 66.1803 20.052 66.5163 19.86C66.8603 19.66 67.1323 19.376 67.3323 19.008C67.5323 18.632 67.6323 18.192 67.6323 17.688ZM72.5137 21.108C72.0097 21.108 71.5577 21.024 71.1577 20.856C70.7577 20.68 70.4417 20.44 70.2097 20.136C69.9777 19.824 69.8497 19.468 69.8257 19.068H70.9537C70.9857 19.396 71.1377 19.664 71.4097 19.872C71.6897 20.08 72.0537 20.184 72.5017 20.184C72.9177 20.184 73.2457 20.092 73.4857 19.908C73.7257 19.724 73.8457 19.492 73.8457 19.212C73.8457 18.924 73.7177 18.712 73.4617 18.576C73.2057 18.432 72.8097 18.292 72.2737 18.156C71.7857 18.028 71.3857 17.9 71.0737 17.772C70.7697 17.636 70.5057 17.44 70.2817 17.184C70.0657 16.92 69.9577 16.576 69.9577 16.152C69.9577 15.816 70.0577 15.508 70.2577 15.228C70.4577 14.948 70.7417 14.728 71.1097 14.568C71.4777 14.4 71.8977 14.316 72.3697 14.316C73.0977 14.316 73.6857 14.5 74.1337 14.868C74.5817 15.236 74.8217 15.74 74.8537 16.38H73.7617C73.7377 16.036 73.5977 15.76 73.3417 15.552C73.0937 15.344 72.7577 15.24 72.3337 15.24C71.9417 15.24 71.6297 15.324 71.3977 15.492C71.1657 15.66 71.0497 15.88 71.0497 16.152C71.0497 16.368 71.1177 16.548 71.2537 16.692C71.3977 16.828 71.5737 16.94 71.7817 17.028C71.9977 17.108 72.2937 17.2 72.6697 17.304C73.1417 17.432 73.5257 17.56 73.8217 17.688C74.1177 17.808 74.3697 17.992 74.5777 18.24C74.7937 18.488 74.9057 18.812 74.9137 19.212C74.9137 19.572 74.8137 19.896 74.6137 20.184C74.4137 20.472 74.1297 20.7 73.7617 20.868C73.4017 21.028 72.9857 21.108 72.5137 21.108Z" fill="white"/>
<path d="M8.5 2C7.70435 2 6.94129 2.31607 6.37868 2.87868C5.81607 3.44129 5.5 4.20435 5.5 5C5.5 5.79565 5.81607 6.55871 6.37868 7.12132C6.94129 7.68393 7.70435 8 8.5 8H15.5C16.2956 8 17.0587 7.68393 17.6213 7.12132C18.1839 6.55871 18.5 5.79565 18.5 5C18.5 4.20435 18.1839 3.44129 17.6213 2.87868C17.0587 2.31607 16.2956 2 15.5 2H8.5Z" fill="white"/>
<path d="M15.5 9C14.7044 9 13.9413 9.31607 13.3787 9.87868C12.8161 10.4413 12.5 11.2044 12.5 12C12.5 12.7956 12.8161 13.5587 13.3787 14.1213C13.9413 14.6839 14.7044 15 15.5 15C16.2956 15 17.0587 14.6839 17.6213 14.1213C18.1839 13.5587 18.5 12.7956 18.5 12C18.5 11.2044 18.1839 10.4413 17.6213 9.87868C17.0587 9.31607 16.2956 9 15.5 9V9Z" fill="white"/>
<path d="M5.5 12C5.5 11.2044 5.81607 10.4413 6.37868 9.87868C6.94129 9.31607 7.70435 9 8.5 9H11.5V15H8.5C7.70435 15 6.94129 14.6839 6.37868 14.1213C5.81607 13.5587 5.5 12.7956 5.5 12Z" fill="white"/>
<path d="M8.5 16C7.90666 16 7.32664 16.1759 6.83329 16.5056C6.33994 16.8352 5.95543 17.3038 5.72836 17.8519C5.5013 18.4001 5.44189 19.0033 5.55765 19.5853C5.6734 20.1672 5.95912 20.7018 6.37868 21.1213C6.79824 21.5409 7.33279 21.8266 7.91473 21.9424C8.49667 22.0581 9.09987 21.9987 9.64805 21.7716C10.1962 21.5446 10.6648 21.1601 10.9944 20.6667C11.3241 20.1734 11.5 19.5933 11.5 19V16H8.5Z" fill="white"/>
</svg>
