<svg width="88" height="24" viewBox="0 0 88 24" fill="none" xmlns="http://www.w3.org/2000/svg">
<path d="M25.516 16.812C25.516 15.996 25.7 15.264 26.068 14.616C26.436 13.96 26.936 13.448 27.568 13.08C28.208 12.712 28.916 12.528 29.692 12.528C30.604 12.528 31.4 12.748 32.08 13.188C32.76 13.628 33.256 14.252 33.568 15.06H32.26C32.028 14.556 31.692 14.168 31.252 13.896C30.82 13.624 30.3 13.488 29.692 13.488C29.108 13.488 28.584 13.624 28.12 13.896C27.656 14.168 27.292 14.556 27.028 15.06C26.764 15.556 26.632 16.14 26.632 16.812C26.632 17.476 26.764 18.06 27.028 18.564C27.292 19.06 27.656 19.444 28.12 19.716C28.584 19.988 29.108 20.124 29.692 20.124C30.3 20.124 30.82 19.992 31.252 19.728C31.692 19.456 32.028 19.068 32.26 18.564H33.568C33.256 19.364 32.76 19.984 32.08 20.424C31.4 20.856 30.604 21.072 29.692 21.072C28.916 21.072 28.208 20.892 27.568 20.532C26.936 20.164 26.436 19.656 26.068 19.008C25.7 18.36 25.516 17.628 25.516 16.812ZM37.8455 21.084C37.2935 21.084 36.7975 20.988 36.3575 20.796C35.9255 20.596 35.5855 20.324 35.3375 19.98C35.0895 19.628 34.9615 19.224 34.9535 18.768H36.1175C36.1575 19.16 36.3175 19.492 36.5975 19.764C36.8855 20.028 37.3015 20.16 37.8455 20.16C38.3655 20.16 38.7735 20.032 39.0695 19.776C39.3735 19.512 39.5255 19.176 39.5255 18.768C39.5255 18.448 39.4375 18.188 39.2615 17.988C39.0855 17.788 38.8655 17.636 38.6015 17.532C38.3375 17.428 37.9815 17.316 37.5335 17.196C36.9815 17.052 36.5375 16.908 36.2015 16.764C35.8735 16.62 35.5895 16.396 35.3495 16.092C35.1175 15.78 35.0015 15.364 35.0015 14.844C35.0015 14.388 35.1175 13.984 35.3495 13.632C35.5815 13.28 35.9055 13.008 36.3215 12.816C36.7455 12.624 37.2295 12.528 37.7735 12.528C38.5575 12.528 39.1975 12.724 39.6935 13.116C40.1975 13.508 40.4815 14.028 40.5455 14.676H39.3455C39.3055 14.356 39.1375 14.076 38.8415 13.836C38.5455 13.588 38.1535 13.464 37.6655 13.464C37.2095 13.464 36.8375 13.584 36.5495 13.824C36.2615 14.056 36.1175 14.384 36.1175 14.808C36.1175 15.112 36.2015 15.36 36.3695 15.552C36.5455 15.744 36.7575 15.892 37.0055 15.996C37.2615 16.092 37.6175 16.204 38.0735 16.332C38.6255 16.484 39.0695 16.636 39.4055 16.788C39.7415 16.932 40.0295 17.16 40.2695 17.472C40.5095 17.776 40.6295 18.192 40.6295 18.72C40.6295 19.128 40.5215 19.512 40.3055 19.872C40.0895 20.232 39.7695 20.524 39.3455 20.748C38.9215 20.972 38.4215 21.084 37.8455 21.084ZM44.8885 21.084C44.3365 21.084 43.8405 20.988 43.4005 20.796C42.9685 20.596 42.6285 20.324 42.3805 19.98C42.1325 19.628 42.0045 19.224 41.9965 18.768H43.1605C43.2005 19.16 43.3605 19.492 43.6405 19.764C43.9285 20.028 44.3445 20.16 44.8885 20.16C45.4085 20.16 45.8165 20.032 46.1125 19.776C46.4165 19.512 46.5685 19.176 46.5685 18.768C46.5685 18.448 46.4805 18.188 46.3045 17.988C46.1285 17.788 45.9085 17.636 45.6445 17.532C45.3805 17.428 45.0245 17.316 44.5765 17.196C44.0245 17.052 43.5805 16.908 43.2445 16.764C42.9165 16.62 42.6325 16.396 42.3925 16.092C42.1605 15.78 42.0445 15.364 42.0445 14.844C42.0445 14.388 42.1605 13.984 42.3925 13.632C42.6245 13.28 42.9485 13.008 43.3645 12.816C43.7885 12.624 44.2725 12.528 44.8165 12.528C45.6005 12.528 46.2405 12.724 46.7365 13.116C47.2405 13.508 47.5245 14.028 47.5885 14.676H46.3885C46.3485 14.356 46.1805 14.076 45.8845 13.836C45.5885 13.588 45.1965 13.464 44.7085 13.464C44.2525 13.464 43.8805 13.584 43.5925 13.824C43.3045 14.056 43.1605 14.384 43.1605 14.808C43.1605 15.112 43.2445 15.36 43.4125 15.552C43.5885 15.744 43.8005 15.892 44.0485 15.996C44.3045 16.092 44.6605 16.204 45.1165 16.332C45.6685 16.484 46.1125 16.636 46.4485 16.788C46.7845 16.932 47.0725 17.16 47.3125 17.472C47.5525 17.776 47.6725 18.192 47.6725 18.72C47.6725 19.128 47.5645 19.512 47.3485 19.872C47.1325 20.232 46.8125 20.524 46.3885 20.748C45.9645 20.972 45.4645 21.084 44.8885 21.084ZM49.0755 14.508C49.1315 13.772 49.4155 13.196 49.9275 12.78C50.4395 12.364 51.1035 12.156 51.9195 12.156C52.4635 12.156 52.9315 12.256 53.3235 12.456C53.7235 12.648 54.0235 12.912 54.2235 13.248C54.4315 13.584 54.5355 13.964 54.5355 14.388C54.5355 14.884 54.3915 15.312 54.1035 15.672C53.8235 16.032 53.4555 16.264 52.9995 16.368V16.428C53.5195 16.556 53.9315 16.808 54.2355 17.184C54.5395 17.56 54.6915 18.052 54.6915 18.66C54.6915 19.116 54.5875 19.528 54.3795 19.896C54.1715 20.256 53.8595 20.54 53.4435 20.748C53.0275 20.956 52.5275 21.06 51.9435 21.06C51.0955 21.06 50.3995 20.84 49.8555 20.4C49.3115 19.952 49.0075 19.32 48.9435 18.504H49.9995C50.0555 18.984 50.2515 19.376 50.5875 19.68C50.9235 19.984 51.3715 20.136 51.9315 20.136C52.4915 20.136 52.9155 19.992 53.2035 19.704C53.4995 19.408 53.6475 19.028 53.6475 18.564C53.6475 17.964 53.4475 17.532 53.0475 17.268C52.6475 17.004 52.0435 16.872 51.2355 16.872H50.9595V15.96H51.2475C51.9835 15.952 52.5395 15.832 52.9155 15.6C53.2915 15.36 53.4795 14.992 53.4795 14.496C53.4795 14.072 53.3395 13.732 53.0595 13.476C52.7875 13.22 52.3955 13.092 51.8835 13.092C51.3875 13.092 50.9875 13.22 50.6835 13.476C50.3795 13.732 50.1995 14.076 50.1435 14.508H49.0755Z" fill="white"/>
<path d="M20 4L18 18.5L12 20.5L6 18.5L4 4H20Z" stroke="white" stroke-width="2" stroke-linecap="round" stroke-linejoin="round"/>
<path d="M12.4948 10.5743H14.8724L15.0363 8.76599H12.4948V7H17L16.957 7.47363L16.5158 12.3402H12.4948V10.5743Z" fill="white"/>
<path d="M12.5059 15.1603L12.4977 15.1626L10.4968 14.6313L10.3689 13.2229H8.56506L8.81678 15.9956L12.4971 17L12.5059 16.9977V15.1603V15.1603Z" fill="#EBEBEB"/>
<path d="M14.7195 12.2654L14.5032 14.6301L12.4994 15.1615V16.9989L16.1827 15.9956L16.21 15.6974L16.5221 12.2654H14.7195V12.2654Z" fill="white"/>
<path d="M12.5012 7V8.76599H8.16103L8.12498 8.36891L8.04302 7.47363L8 7H12.5012V7Z" fill="#EBEBEB"/>
<path d="M12.4948 10.5742V12.3402H10.5188L10.4828 11.9432L10.4014 11.0479L10.3584 10.5742H12.4948V10.5742Z" fill="#EBEBEB"/>
</svg>
